<?xml version="1.0" encoding="UTF-8" standalone="no"?>
<!DOCTYPE svg PUBLIC "-//W3C//DTD SVG 1.1//EN"
 "http://www.w3.org/Graphics/SVG/1.1/DTD/svg11.dtd">
<!-- Generated by graphviz version 2.36.0 (20140111.2315)
 -->
<!-- Title: AOnode Pages: 1 -->
<!--zoomable 742 -->
<svg id="main" version="1.1" xmlns="http://www.w3.org/2000/svg" xmlns:xlink="http://www.w3.org/1999/xlink" xml:space="preserve" onload="init(evt)">
<style type="text/css"><![CDATA[
.edge:hover path { stroke: red; }
.edge:hover polygon { stroke: red; fill: red; }
]]></style>
<script type="text/javascript"><![CDATA[
var edges = document.getElementsByTagName('g');
if (edges && edges.length) {
  for (var i=0;i<edges.length;i++) {
    if (edges[i].id.substr(0,4)=='edge') {
      edges[i].setAttribute('class','edge');
    }
  }
}
]]></script>
        <defs>
                <circle id="rim" cx="0" cy="0" r="7"/>
                <circle id="rim2" cx="0" cy="0" r="3.5"/>
                <g id="zoomPlus">
                        <use xlink:href="#rim" fill="#404040">
                                <set attributeName="fill" to="#808080" begin="zoomplus.mouseover" end="zoomplus.mouseout"/>
                        </use>
                        <path d="M-4,0h8M0,-4v8" fill="none" stroke="white" stroke-width="1.5" pointer-events="none"/>
                </g>
                <g id="zoomMin">
                        <use xlink:href="#rim" fill="#404040">
                                <set attributeName="fill" to="#808080" begin="zoomminus.mouseover" end="zoomminus.mouseout"/>
                        </use>
                        <path d="M-4,0h8" fill="none" stroke="white" stroke-width="1.5" pointer-events="none"/>
                </g>
                <g id="dirArrow">
                        <path fill="none" stroke="white" stroke-width="1.5" d="M0,-3.0v7 M-2.5,-0.5L0,-3.0L2.5,-0.5"/>
                </g>
               <g id="resetDef">
                       <use xlink:href="#rim2" fill="#404040">
                               <set attributeName="fill" to="#808080" begin="reset.mouseover" end="reset.mouseout"/>
                       </use>
               </g>
        </defs>

<script type="text/javascript">
var viewWidth = 286;
var viewHeight = 742;
var sectionId = 'dynsection-0';
</script>
<script xlink:href="../../svgpan.js"/>
<svg id="graph" class="graph">
<g id="viewport">
<title>AOnode</title>
<polygon fill="white" stroke="none" points="-4,4 -4,-738 282,-738 282,4 -4,4"/>
<!-- Node1 -->
<g id="node1" class="node"><title>Node1</title>
<polygon fill="#bfbfbf" stroke="black" points="146,-352.5 146,-519.5 278,-519.5 278,-352.5 146,-352.5"/>
<text text-anchor="middle" x="212" y="-507.5" font-family="Helvetica,sans-Serif" font-size="10.00">AOnode</text>
<polyline fill="none" stroke="black" points="146,-500.5 278,-500.5 "/>
<text text-anchor="start" x="154" y="-488.5" font-family="Helvetica,sans-Serif" font-size="10.00">+ nCost</text>
<text text-anchor="start" x="154" y="-477.5" font-family="Helvetica,sans-Serif" font-size="10.00">+ nSolved</text>
<text text-anchor="start" x="154" y="-466.5" font-family="Helvetica,sans-Serif" font-size="10.00">+ nFeasible</text>
<polyline fill="none" stroke="black" points="146,-459.5 278,-459.5 "/>
<text text-anchor="start" x="154" y="-447.5" font-family="Helvetica,sans-Serif" font-size="10.00">+ AOnode()</text>
<text text-anchor="start" x="154" y="-436.5" font-family="Helvetica,sans-Serif" font-size="10.00">+ addArc()</text>
<text text-anchor="start" x="154" y="-425.5" font-family="Helvetica,sans-Serif" font-size="10.00">+ printNodeInfo()</text>
<text text-anchor="start" x="154" y="-414.5" font-family="Helvetica,sans-Serif" font-size="10.00">+ printNodeFeasibiltyInfo()</text>
<text text-anchor="start" x="154" y="-403.5" font-family="Helvetica,sans-Serif" font-size="10.00">+ printNodeSolveInfo()</text>
<text text-anchor="start" x="154" y="-392.5" font-family="Helvetica,sans-Serif" font-size="10.00">+ printNodeNameInfo()</text>
<text text-anchor="start" x="154" y="-381.5" font-family="Helvetica,sans-Serif" font-size="10.00">+ isFeasible()</text>
<text text-anchor="start" x="154" y="-370.5" font-family="Helvetica,sans-Serif" font-size="10.00">+ setSolved()</text>
<text text-anchor="start" x="154" y="-359.5" font-family="Helvetica,sans-Serif" font-size="10.00">+ ~AOnode()</text>
</g>
<!-- Node2 -->
<g id="node2" class="node"><title>Node2</title>
<polygon fill="white" stroke="#bfbfbf" points="85.5,-246.5 85.5,-303.5 208.5,-303.5 208.5,-246.5 85.5,-246.5"/>
<text text-anchor="middle" x="147" y="-291.5" font-family="Helvetica,sans-Serif" font-size="10.00">std::vector&lt; AOnode * &gt;</text>
<polyline fill="none" stroke="#bfbfbf" points="85.5,-284.5 208.5,-284.5 "/>
<text text-anchor="middle" x="147" y="-272.5" font-family="Helvetica,sans-Serif" font-size="10.00"> </text>
<polyline fill="none" stroke="#bfbfbf" points="85.5,-265.5 208.5,-265.5 "/>
<text text-anchor="middle" x="147" y="-253.5" font-family="Helvetica,sans-Serif" font-size="10.00"> </text>
</g>
<!-- Node1&#45;&gt;Node2 -->
<g id="edge2" class="edge"><title>Node1&#45;&gt;Node2</title>
<path fill="none" stroke="#404040" d="M201.524,-352.322C198.581,-341.806 194.816,-331.435 190,-322 188.439,-318.942 186.614,-315.942 184.613,-313.032"/>
<polygon fill="none" stroke="#404040" points="184.604,-313.02 177.768,-310.723 177.26,-303.529 184.096,-305.827 184.604,-313.02"/>
<text text-anchor="middle" x="220.5" y="-325.5" font-family="Helvetica,sans-Serif" font-size="10.00"> +elements</text>
</g>
<!-- Node2&#45;&gt;Node1 -->
<g id="edge1" class="edge"><title>Node2&#45;&gt;Node1</title>
<path fill="none" stroke="#404040" d="M144.442,-303.616C144.326,-313.392 145.11,-324.353 148,-334 148.721,-336.408 149.518,-338.814 150.38,-341.213"/>
<polygon fill="none" stroke="#404040" points="150.389,-341.237 156.339,-345.311 154.867,-352.37 148.917,-348.296 150.389,-341.237"/>
<text text-anchor="middle" x="169" y="-325.5" font-family="Helvetica,sans-Serif" font-size="10.00"> +parents</text>
</g>
<!-- Node8 -->
<g id="node8" class="node"><title>Node8</title>
<g id="a_node8"><a xlink:href="../../db/dba/classHyperArc.xhtml" target="_top" xlink:title="class &quot;HyperArc&quot; for the hyperarc connecting one parent node to a number of child nodes in an AND rel...">
<polygon fill="white" stroke="black" points="106,-107 106,-197 188,-197 188,-107 106,-107"/>
<text text-anchor="middle" x="147" y="-185" font-family="Helvetica,sans-Serif" font-size="10.00">HyperArc</text>
<polyline fill="none" stroke="black" points="106,-178 188,-178 "/>
<text text-anchor="start" x="114" y="-166" font-family="Helvetica,sans-Serif" font-size="10.00">+ hIndex</text>
<text text-anchor="start" x="114" y="-155" font-family="Helvetica,sans-Serif" font-size="10.00">+ hCost</text>
<polyline fill="none" stroke="black" points="106,-148 188,-148 "/>
<text text-anchor="start" x="114" y="-136" font-family="Helvetica,sans-Serif" font-size="10.00">+ HyperArc()</text>
<text text-anchor="start" x="114" y="-125" font-family="Helvetica,sans-Serif" font-size="10.00">+ printArcInfo()</text>
<text text-anchor="start" x="114" y="-114" font-family="Helvetica,sans-Serif" font-size="10.00">+ ~HyperArc()</text>
</a>
</g>
</g>
<!-- Node2&#45;&gt;Node8 -->
<g id="edge9" class="edge"><title>Node2&#45;&gt;Node8</title>
<path fill="none" stroke="#404040" d="M147,-246.24C147,-235.242 147,-222.179 147,-209.364"/>
<polygon fill="none" stroke="#404040" points="147,-209.23 143,-203.23 147,-197.23 151,-203.23 147,-209.23"/>
<text text-anchor="middle" x="168.5" y="-219.5" font-family="Helvetica,sans-Serif" font-size="10.00"> +children</text>
</g>
<!-- Node3 -->
<g id="node3" class="node"><title>Node3</title>
<g id="a_node3"><a xlink:title="STL class. ">
<polygon fill="white" stroke="#bfbfbf" points="-0.5,-407.5 -0.5,-464.5 86.5,-464.5 86.5,-407.5 -0.5,-407.5"/>
<text text-anchor="middle" x="43" y="-452.5" font-family="Helvetica,sans-Serif" font-size="10.00">std::vector&lt; T &gt;</text>
<polyline fill="none" stroke="#bfbfbf" points="-0.5,-445.5 86.5,-445.5 "/>
<text text-anchor="middle" x="43" y="-433.5" font-family="Helvetica,sans-Serif" font-size="10.00"> </text>
<polyline fill="none" stroke="#bfbfbf" points="-0.5,-426.5 86.5,-426.5 "/>
<text text-anchor="middle" x="43" y="-414.5" font-family="Helvetica,sans-Serif" font-size="10.00"> </text>
</a>
</g>
</g>
<!-- Node3&#45;&gt;Node2 -->
<g id="edge3" class="edge"><title>Node3&#45;&gt;Node2</title>
<path fill="none" stroke="orange" d="M48.1248,-397.111C52.808,-373.652 61.619,-343.929 78,-322 83.0835,-315.195 89.4889,-309.083 96.3367,-303.706"/>
<polygon fill="orange" stroke="orange" points="44.6599,-396.602 46.3057,-407.068 51.546,-397.86 44.6599,-396.602"/>
<text text-anchor="middle" x="110" y="-325.5" font-family="Helvetica,sans-Serif" font-size="10.00"> &lt; AOnode * &gt;</text>
</g>
<!-- Node7 -->
<g id="node7" class="node"><title>Node7</title>
<polygon fill="white" stroke="#bfbfbf" points="86,-0.5 86,-57.5 208,-57.5 208,-0.5 86,-0.5"/>
<text text-anchor="middle" x="147" y="-45.5" font-family="Helvetica,sans-Serif" font-size="10.00">std::vector&lt; HyperArc &gt;</text>
<polyline fill="none" stroke="#bfbfbf" points="86,-38.5 208,-38.5 "/>
<text text-anchor="middle" x="147" y="-26.5" font-family="Helvetica,sans-Serif" font-size="10.00"> </text>
<polyline fill="none" stroke="#bfbfbf" points="86,-19.5 208,-19.5 "/>
<text text-anchor="middle" x="147" y="-7.5" font-family="Helvetica,sans-Serif" font-size="10.00"> </text>
</g>
<!-- Node3&#45;&gt;Node7 -->
<g id="edge10" class="edge"><title>Node3&#45;&gt;Node7</title>
<path fill="none" stroke="orange" d="M44.132,-396.902C47.1055,-334.181 57.8897,-206.153 97,-106 103.722,-88.7871 114.743,-71.4332 124.73,-57.6625"/>
<polygon fill="orange" stroke="orange" points="40.6258,-396.972 43.6904,-407.114 47.6193,-397.274 40.6258,-396.972"/>
<text text-anchor="middle" x="97.5" y="-219.5" font-family="Helvetica,sans-Serif" font-size="10.00"> &lt; HyperArc &gt;</text>
</g>
<!-- Node4 -->
<g id="node4" class="node"><title>Node4</title>
<polygon fill="white" stroke="#bfbfbf" points="28.5,-568.5 28.5,-625.5 57.5,-625.5 57.5,-568.5 28.5,-568.5"/>
<text text-anchor="middle" x="43" y="-613.5" font-family="Helvetica,sans-Serif" font-size="10.00">T</text>
<polyline fill="none" stroke="#bfbfbf" points="28.5,-606.5 57.5,-606.5 "/>
<text text-anchor="middle" x="43" y="-594.5" font-family="Helvetica,sans-Serif" font-size="10.00"> </text>
<polyline fill="none" stroke="#bfbfbf" points="28.5,-587.5 57.5,-587.5 "/>
<text text-anchor="middle" x="43" y="-575.5" font-family="Helvetica,sans-Serif" font-size="10.00"> </text>
</g>
<!-- Node4&#45;&gt;Node3 -->
<g id="edge4" class="edge"><title>Node4&#45;&gt;Node3</title>
<path fill="none" stroke="#404040" d="M43,-568.304C43,-543.074 43,-505.514 43,-477.021"/>
<polygon fill="none" stroke="#404040" points="43.0001,-476.645 39,-470.645 43,-464.645 47,-470.645 43.0001,-476.645"/>
<text text-anchor="middle" x="67.5" y="-541.5" font-family="Helvetica,sans-Serif" font-size="10.00"> +elements</text>
</g>
<!-- Node5 -->
<g id="node5" class="node"><title>Node5</title>
<g id="a_node5"><a xlink:title="STL class. ">
<polygon fill="white" stroke="#bfbfbf" points="182,-568.5 182,-625.5 242,-625.5 242,-568.5 182,-568.5"/>
<text text-anchor="middle" x="212" y="-613.5" font-family="Helvetica,sans-Serif" font-size="10.00">std::string</text>
<polyline fill="none" stroke="#bfbfbf" points="182,-606.5 242,-606.5 "/>
<text text-anchor="middle" x="212" y="-594.5" font-family="Helvetica,sans-Serif" font-size="10.00"> </text>
<polyline fill="none" stroke="#bfbfbf" points="182,-587.5 242,-587.5 "/>
<text text-anchor="middle" x="212" y="-575.5" font-family="Helvetica,sans-Serif" font-size="10.00"> </text>
</a>
</g>
</g>
<!-- Node5&#45;&gt;Node1 -->
<g id="edge5" class="edge"><title>Node5&#45;&gt;Node1</title>
<path fill="none" stroke="#404040" d="M212,-568.304C212,-557.814 212,-545.192 212,-531.976"/>
<polygon fill="none" stroke="#404040" points="212,-531.716 208,-525.716 212,-519.716 216,-525.716 212,-531.716"/>
<text text-anchor="middle" x="232.5" y="-541.5" font-family="Helvetica,sans-Serif" font-size="10.00"> +nName</text>
</g>
<!-- Node6 -->
<g id="node6" class="node"><title>Node6</title>
<g id="a_node6"><a xlink:title="STL class. ">
<polygon fill="white" stroke="#bfbfbf" points="164.5,-665 164.5,-733 259.5,-733 259.5,-665 164.5,-665"/>
<text text-anchor="start" x="172.5" y="-721" font-family="Helvetica,sans-Serif" font-size="10.00">std::basic_string&lt;</text>
<text text-anchor="middle" x="212" y="-710" font-family="Helvetica,sans-Serif" font-size="10.00"> char &gt;</text>
<polyline fill="none" stroke="#bfbfbf" points="164.5,-703 259.5,-703 "/>
<text text-anchor="middle" x="212" y="-691" font-family="Helvetica,sans-Serif" font-size="10.00"> </text>
<polyline fill="none" stroke="#bfbfbf" points="164.5,-684 259.5,-684 "/>
<text text-anchor="middle" x="212" y="-672" font-family="Helvetica,sans-Serif" font-size="10.00"> </text>
</a>
</g>
</g>
<!-- Node6&#45;&gt;Node5 -->
<g id="edge6" class="edge"><title>Node6&#45;&gt;Node5</title>
<path fill="none" stroke="midnightblue" d="M212,-654.857C212,-644.952 212,-634.682 212,-625.64"/>
<polygon fill="none" stroke="midnightblue" points="208.5,-654.979 212,-664.979 215.5,-654.979 208.5,-654.979"/>
</g>
<!-- Node7&#45;&gt;Node1 -->
<g id="edge7" class="edge"><title>Node7&#45;&gt;Node1</title>
<path fill="none" stroke="#404040" d="M185.376,-57.6967C190.976,-63.2068 196.144,-69.363 200,-76 256.001,-172.395 238.058,-211.057 249,-322 249.583,-327.916 249.567,-333.931 249.079,-339.947"/>
<polygon fill="none" stroke="#404040" points="249.024,-340.371 252.206,-346.842 247.456,-352.268 244.274,-345.797 249.024,-340.371"/>
<text text-anchor="middle" x="258" y="-219.5" font-family="Helvetica,sans-Serif" font-size="10.00"> +arcs</text>
</g>
<!-- Node8&#45;&gt;Node7 -->
<g id="edge8" class="edge"><title>Node8&#45;&gt;Node7</title>
<path fill="none" stroke="#404040" d="M147,-106.974C147,-94.8659 147,-81.8049 147,-69.941"/>
<polygon fill="none" stroke="#404040" points="147,-69.639 143,-63.639 147,-57.639 151,-63.6389 147,-69.639"/>
<text text-anchor="middle" x="171.5" y="-79.5" font-family="Helvetica,sans-Serif" font-size="10.00"> +elements</text>
</g>
</g>
</svg>
        <g id="navigator" transform="translate(0 0)" fill="#404254">
                <rect fill="#f2f5e9" fill-opacity="0.5" stroke="#606060" stroke-width=".5" x="0" y="0" width="60" height="60"/>
                <use id="zoomplus" xlink:href="#zoomPlus" x="17" y="9" onmousedown="handleZoom(evt,'in')"/>
                <use id="zoomminus" xlink:href="#zoomMin" x="42" y="9" onmousedown="handleZoom(evt,'out')"/>
                <use id="reset" xlink:href="#resetDef" x="30" y="36" onmousedown="handleReset()"/>
                <g id="arrowUp" xlink:href="#dirArrow" transform="translate(30 24)" onmousedown="handlePan(0,-1)">
                  <use xlink:href="#rim" fill="#404040">
                        <set attributeName="fill" to="#808080" begin="arrowUp.mouseover" end="arrowUp.mouseout"/>
                  </use>
                  <path fill="none" stroke="white" stroke-width="1.5" d="M0,-3.0v7 M-2.5,-0.5L0,-3.0L2.5,-0.5"/>
                </g>
                <g id="arrowRight" xlink:href="#dirArrow" transform="rotate(90) translate(36 -43)" onmousedown="handlePan(1,0)">
                  <use xlink:href="#rim" fill="#404040">
                        <set attributeName="fill" to="#808080" begin="arrowRight.mouseover" end="arrowRight.mouseout"/>
                  </use>
                  <path fill="none" stroke="white" stroke-width="1.5" d="M0,-3.0v7 M-2.5,-0.5L0,-3.0L2.5,-0.5"/>
                </g>
                <g id="arrowDown" xlink:href="#dirArrow" transform="rotate(180) translate(-30 -48)" onmousedown="handlePan(0,1)">
                  <use xlink:href="#rim" fill="#404040">
                        <set attributeName="fill" to="#808080" begin="arrowDown.mouseover" end="arrowDown.mouseout"/>
                  </use>
                  <path fill="none" stroke="white" stroke-width="1.5" d="M0,-3.0v7 M-2.5,-0.5L0,-3.0L2.5,-0.5"/>
                </g>
                <g id="arrowLeft" xlink:href="#dirArrow" transform="rotate(270) translate(-36 17)" onmousedown="handlePan(-1,0)">
                  <use xlink:href="#rim" fill="#404040">
                        <set attributeName="fill" to="#808080" begin="arrowLeft.mouseover" end="arrowLeft.mouseout"/>
                  </use>
                  <path fill="none" stroke="white" stroke-width="1.5" d="M0,-3.0v7 M-2.5,-0.5L0,-3.0L2.5,-0.5"/>
                </g>
        </g>
        <svg viewBox="0 0 15 15" width="100%" height="30px" preserveAspectRatio="xMaxYMin meet">
         <g id="arrow_out" transform="scale(0.3 0.3)">
          <a xlink:href="classAOnode__coll__graph_org.svg" target="_base">
           <rect id="button" ry="5" rx="5" y="6" x="6" height="38" width="38"
                fill="#f2f5e9" fill-opacity="0.5" stroke="#606060" stroke-width="1.0"/>
           <path id="arrow"
             d="M 11.500037,31.436501 C 11.940474,20.09759 22.043105,11.32322 32.158766,21.979434 L 37.068811,17.246167 C 37.068811,17.246167 37.088388,32 37.088388,32 L 22.160133,31.978069 C 22.160133,31.978069 26.997745,27.140456 26.997745,27.140456 C 18.528582,18.264221 13.291696,25.230495 11.500037,31.436501 z"
             style="fill:#404040;"/>
          </a>
         </g>
        </svg>
</svg>
