<?xml version="1.0" encoding="UTF-8" standalone="no"?>
<!DOCTYPE svg PUBLIC "-//W3C//DTD SVG 1.1//EN"
 "http://www.w3.org/Graphics/SVG/1.1/DTD/svg11.dtd">
<!-- Generated by graphviz version 2.36.0 (20140111.2315)
 -->
<!-- Title: CallBackClass Pages: 1 -->
<svg width="177pt" height="578pt"
 viewBox="0.00 0.00 177.00 578.00" xmlns="http://www.w3.org/2000/svg" xmlns:xlink="http://www.w3.org/1999/xlink">
<g id="graph0" class="graph" transform="scale(1 1) rotate(0) translate(4 574)">
<title>CallBackClass</title>
<polygon fill="white" stroke="none" points="-4,4 -4,-574 173,-574 173,4 -4,4"/>
<!-- Node1 -->
<g id="node1" class="node"><title>Node1</title>
<polygon fill="#bfbfbf" stroke="black" points="0,-1 0,-333 162,-333 162,-1 0,-1"/>
<text text-anchor="middle" x="81" y="-321" font-family="Helvetica,sans-Serif" font-size="10.00">CallBackClass</text>
<polyline fill="none" stroke="black" points="0,-314 162,-314 "/>
<text text-anchor="start" x="8" y="-302" font-family="Helvetica,sans-Serif" font-size="10.00">+ HMP_ack_flag</text>
<text text-anchor="start" x="8" y="-291" font-family="Helvetica,sans-Serif" font-size="10.00">+ HMP_cognition_flag</text>
<text text-anchor="start" x="8" y="-280" font-family="Helvetica,sans-Serif" font-size="10.00">+ HMP_initial_command_flag</text>
<text text-anchor="start" x="8" y="-269" font-family="Helvetica,sans-Serif" font-size="10.00">+ control_ack_flag</text>
<text text-anchor="start" x="8" y="-258" font-family="Helvetica,sans-Serif" font-size="10.00">+ control_initial_command_flag</text>
<text text-anchor="start" x="8" y="-247" font-family="Helvetica,sans-Serif" font-size="10.00">+ HMP_parameter_cognition_flag</text>
<text text-anchor="start" x="8" y="-236" font-family="Helvetica,sans-Serif" font-size="10.00">+ hri_control_goal_flag</text>
<text text-anchor="start" x="8" y="-225" font-family="Helvetica,sans-Serif" font-size="10.00">+ rob_goal_reach_flag</text>
<text text-anchor="start" x="8" y="-214" font-family="Helvetica,sans-Serif" font-size="10.00">+ rec_human_action_flag</text>
<text text-anchor="start" x="8" y="-203" font-family="Helvetica,sans-Serif" font-size="10.00">+ NoParameterHMP</text>
<text text-anchor="start" x="8" y="-192" font-family="Helvetica,sans-Serif" font-size="10.00">+ NoOutputHMP</text>
<text text-anchor="start" x="8" y="-181" font-family="Helvetica,sans-Serif" font-size="10.00">+ HMPOutput</text>
<text text-anchor="start" x="8" y="-170" font-family="Helvetica,sans-Serif" font-size="10.00">&#45; nh</text>
<text text-anchor="start" x="8" y="-159" font-family="Helvetica,sans-Serif" font-size="10.00">&#45; sub_HMPAck</text>
<text text-anchor="start" x="8" y="-148" font-family="Helvetica,sans-Serif" font-size="10.00">&#45; sub_HMPOut</text>
<text text-anchor="start" x="8" y="-137" font-family="Helvetica,sans-Serif" font-size="10.00">&#45; sub_HRecAction</text>
<text text-anchor="start" x="8" y="-126" font-family="Helvetica,sans-Serif" font-size="10.00">&#45; sub_CtrlAck</text>
<text text-anchor="start" x="8" y="-115" font-family="Helvetica,sans-Serif" font-size="10.00">&#45; sub_CtrlOut</text>
<text text-anchor="start" x="8" y="-104" font-family="Helvetica,sans-Serif" font-size="10.00">&#45; sub_JntSt</text>
<text text-anchor="start" x="8" y="-93" font-family="Helvetica,sans-Serif" font-size="10.00">&#45; sub_LGrip</text>
<text text-anchor="start" x="8" y="-82" font-family="Helvetica,sans-Serif" font-size="10.00">&#45; sub_RGrip</text>
<polyline fill="none" stroke="black" points="0,-75 162,-75 "/>
<text text-anchor="start" x="8" y="-63" font-family="Helvetica,sans-Serif" font-size="10.00">+ CallBackClass()</text>
<text text-anchor="start" x="8" y="-52" font-family="Helvetica,sans-Serif" font-size="10.00">+ HMPAckCallBack()</text>
<text text-anchor="start" x="8" y="-41" font-family="Helvetica,sans-Serif" font-size="10.00">+ HMPOutputCallBack()</text>
<text text-anchor="start" x="8" y="-30" font-family="Helvetica,sans-Serif" font-size="10.00">+ HRecActionCallBack()</text>
<text text-anchor="start" x="8" y="-19" font-family="Helvetica,sans-Serif" font-size="10.00">+ RobotAckCallBack()</text>
<text text-anchor="start" x="8" y="-8" font-family="Helvetica,sans-Serif" font-size="10.00">+ ControlOutputCallBack()</text>
</g>
<!-- Node2 -->
<g id="node2" class="node"><title>Node2</title>
<g id="a_node2"><a xlink:title="STL class. ">
<polygon fill="white" stroke="#bfbfbf" points="51,-404.5 51,-461.5 111,-461.5 111,-404.5 51,-404.5"/>
<text text-anchor="middle" x="81" y="-449.5" font-family="Helvetica,sans-Serif" font-size="10.00">std::string</text>
<polyline fill="none" stroke="#bfbfbf" points="51,-442.5 111,-442.5 "/>
<text text-anchor="middle" x="81" y="-430.5" font-family="Helvetica,sans-Serif" font-size="10.00"> </text>
<polyline fill="none" stroke="#bfbfbf" points="51,-423.5 111,-423.5 "/>
<text text-anchor="middle" x="81" y="-411.5" font-family="Helvetica,sans-Serif" font-size="10.00"> </text>
</a>
</g>
</g>
<!-- Node2&#45;&gt;Node1 -->
<g id="edge1" class="edge"><title>Node2&#45;&gt;Node1</title>
<path fill="none" stroke="#404040" d="M81,-404.246C81,-388.745 81,-367.979 81,-345.166"/>
<polygon fill="none" stroke="#404040" points="81.0001,-345.066 77,-339.066 81,-333.066 85,-339.066 81.0001,-345.066"/>
<text text-anchor="start" x="81" y="-377.5" font-family="Helvetica,sans-Serif" font-size="10.00"> +recognized_action</text>
<text text-anchor="middle" x="125" y="-366.5" font-family="Helvetica,sans-Serif" font-size="10.00">_human</text>
<text text-anchor="middle" x="125" y="-355.5" font-family="Helvetica,sans-Serif" font-size="10.00">+parameterHMP</text>
</g>
<!-- Node3 -->
<g id="node3" class="node"><title>Node3</title>
<g id="a_node3"><a xlink:title="STL class. ">
<polygon fill="white" stroke="#bfbfbf" points="33.5,-501 33.5,-569 128.5,-569 128.5,-501 33.5,-501"/>
<text text-anchor="start" x="41.5" y="-557" font-family="Helvetica,sans-Serif" font-size="10.00">std::basic_string&lt;</text>
<text text-anchor="middle" x="81" y="-546" font-family="Helvetica,sans-Serif" font-size="10.00"> char &gt;</text>
<polyline fill="none" stroke="#bfbfbf" points="33.5,-539 128.5,-539 "/>
<text text-anchor="middle" x="81" y="-527" font-family="Helvetica,sans-Serif" font-size="10.00"> </text>
<polyline fill="none" stroke="#bfbfbf" points="33.5,-520 128.5,-520 "/>
<text text-anchor="middle" x="81" y="-508" font-family="Helvetica,sans-Serif" font-size="10.00"> </text>
</a>
</g>
</g>
<!-- Node3&#45;&gt;Node2 -->
<g id="edge2" class="edge"><title>Node3&#45;&gt;Node2</title>
<path fill="none" stroke="midnightblue" d="M81,-490.857C81,-480.952 81,-470.682 81,-461.64"/>
<polygon fill="none" stroke="midnightblue" points="77.5001,-490.979 81,-500.979 84.5001,-490.979 77.5001,-490.979"/>
</g>
</g>
</svg>
