<?xml version="1.0" encoding="UTF-8" standalone="no"?>
<!DOCTYPE svg PUBLIC "-//W3C//DTD SVG 1.1//EN"
 "http://www.w3.org/Graphics/SVG/1.1/DTD/svg11.dtd">
<!-- Generated by graphviz version 2.36.0 (20140111.2315)
 -->
<!-- Title: Path Pages: 1 -->
<svg width="632pt" height="794pt"
 viewBox="0.00 0.00 632.00 794.00" xmlns="http://www.w3.org/2000/svg" xmlns:xlink="http://www.w3.org/1999/xlink">
<g id="graph0" class="graph" transform="scale(1 1) rotate(0) translate(4 790)">
<title>Path</title>
<polygon fill="white" stroke="none" points="-4,4 -4,-790 628,-790 628,4 -4,4"/>
<!-- Node1 -->
<g id="node1" class="node"><title>Node1</title>
<polygon fill="#bfbfbf" stroke="black" points="73.5,-322.5 73.5,-467.5 162.5,-467.5 162.5,-322.5 73.5,-322.5"/>
<text text-anchor="middle" x="118" y="-455.5" font-family="Helvetica,sans-Serif" font-size="10.00">Path</text>
<polyline fill="none" stroke="black" points="73.5,-448.5 162.5,-448.5 "/>
<text text-anchor="start" x="81.5" y="-436.5" font-family="Helvetica,sans-Serif" font-size="10.00">+ pIndex</text>
<text text-anchor="start" x="81.5" y="-425.5" font-family="Helvetica,sans-Serif" font-size="10.00">+ pCost</text>
<text text-anchor="start" x="81.5" y="-414.5" font-family="Helvetica,sans-Serif" font-size="10.00">+ pComplete</text>
<polyline fill="none" stroke="black" points="73.5,-407.5 162.5,-407.5 "/>
<text text-anchor="start" x="81.5" y="-395.5" font-family="Helvetica,sans-Serif" font-size="10.00">+ Path()</text>
<text text-anchor="start" x="81.5" y="-384.5" font-family="Helvetica,sans-Serif" font-size="10.00">+ Path()</text>
<text text-anchor="start" x="81.5" y="-373.5" font-family="Helvetica,sans-Serif" font-size="10.00">+ printPathInfo()</text>
<text text-anchor="start" x="81.5" y="-362.5" font-family="Helvetica,sans-Serif" font-size="10.00">+ addNode()</text>
<text text-anchor="start" x="81.5" y="-351.5" font-family="Helvetica,sans-Serif" font-size="10.00">+ updatePath()</text>
<text text-anchor="start" x="81.5" y="-340.5" font-family="Helvetica,sans-Serif" font-size="10.00">+ suggestNode()</text>
<text text-anchor="start" x="81.5" y="-329.5" font-family="Helvetica,sans-Serif" font-size="10.00">+ ~Path()</text>
</g>
<!-- Node2 -->
<g id="node2" class="node"><title>Node2</title>
<polygon fill="white" stroke="#bfbfbf" points="227.5,-516.5 227.5,-573.5 350.5,-573.5 350.5,-516.5 227.5,-516.5"/>
<text text-anchor="middle" x="289" y="-561.5" font-family="Helvetica,sans-Serif" font-size="10.00">std::vector&lt; AOnode * &gt;</text>
<polyline fill="none" stroke="#bfbfbf" points="227.5,-554.5 350.5,-554.5 "/>
<text text-anchor="middle" x="289" y="-542.5" font-family="Helvetica,sans-Serif" font-size="10.00"> </text>
<polyline fill="none" stroke="#bfbfbf" points="227.5,-535.5 350.5,-535.5 "/>
<text text-anchor="middle" x="289" y="-523.5" font-family="Helvetica,sans-Serif" font-size="10.00"> </text>
</g>
<!-- Node2&#45;&gt;Node1 -->
<g id="edge1" class="edge"><title>Node2&#45;&gt;Node1</title>
<path fill="none" stroke="#404040" d="M242.185,-516.33C233.558,-510.612 224.815,-504.377 217,-498 201.325,-485.209 185.536,-470.149 171.314,-455.586"/>
<polygon fill="none" stroke="#404040" points="170.996,-455.255 163.953,-453.704 162.676,-446.607 169.719,-448.158 170.996,-455.255"/>
<text text-anchor="middle" x="245.5" y="-489.5" font-family="Helvetica,sans-Serif" font-size="10.00"> +pathNodes</text>
</g>
<!-- Node3 -->
<g id="node3" class="node"><title>Node3</title>
<g id="a_node3"><a xlink:href="../../d6/d22/classAOnode.xhtml" target="_top" xlink:title="class &quot;AOnode&quot; for the generic node element of an AND&#45;OR graph ">
<polygon fill="white" stroke="black" points="310,-0.5 310,-167.5 442,-167.5 442,-0.5 310,-0.5"/>
<text text-anchor="middle" x="376" y="-155.5" font-family="Helvetica,sans-Serif" font-size="10.00">AOnode</text>
<polyline fill="none" stroke="black" points="310,-148.5 442,-148.5 "/>
<text text-anchor="start" x="318" y="-136.5" font-family="Helvetica,sans-Serif" font-size="10.00">+ nCost</text>
<text text-anchor="start" x="318" y="-125.5" font-family="Helvetica,sans-Serif" font-size="10.00">+ nSolved</text>
<text text-anchor="start" x="318" y="-114.5" font-family="Helvetica,sans-Serif" font-size="10.00">+ nFeasible</text>
<polyline fill="none" stroke="black" points="310,-107.5 442,-107.5 "/>
<text text-anchor="start" x="318" y="-95.5" font-family="Helvetica,sans-Serif" font-size="10.00">+ AOnode()</text>
<text text-anchor="start" x="318" y="-84.5" font-family="Helvetica,sans-Serif" font-size="10.00">+ addArc()</text>
<text text-anchor="start" x="318" y="-73.5" font-family="Helvetica,sans-Serif" font-size="10.00">+ printNodeInfo()</text>
<text text-anchor="start" x="318" y="-62.5" font-family="Helvetica,sans-Serif" font-size="10.00">+ printNodeFeasibiltyInfo()</text>
<text text-anchor="start" x="318" y="-51.5" font-family="Helvetica,sans-Serif" font-size="10.00">+ printNodeSolveInfo()</text>
<text text-anchor="start" x="318" y="-40.5" font-family="Helvetica,sans-Serif" font-size="10.00">+ printNodeNameInfo()</text>
<text text-anchor="start" x="318" y="-29.5" font-family="Helvetica,sans-Serif" font-size="10.00">+ isFeasible()</text>
<text text-anchor="start" x="318" y="-18.5" font-family="Helvetica,sans-Serif" font-size="10.00">+ setSolved()</text>
<text text-anchor="start" x="318" y="-7.5" font-family="Helvetica,sans-Serif" font-size="10.00">+ ~AOnode()</text>
</a>
</g>
</g>
<!-- Node2&#45;&gt;Node3 -->
<g id="edge3" class="edge"><title>Node2&#45;&gt;Node3</title>
<path fill="none" stroke="#404040" d="M286.738,-516.435C283.574,-469.718 279.878,-372.24 296,-292 303.67,-253.826 317.752,-213.531 331.988,-178.74"/>
<polygon fill="none" stroke="#404040" points="331.994,-178.725 330.608,-171.649 336.608,-167.648 337.993,-174.724 331.994,-178.725"/>
<text text-anchor="middle" x="317" y="-295.5" font-family="Helvetica,sans-Serif" font-size="10.00"> +parents</text>
</g>
<!-- Node7 -->
<g id="node7" class="node"><title>Node7</title>
<g id="a_node7"><a xlink:href="../../db/dba/classHyperArc.xhtml" target="_top" xlink:title="class &quot;HyperArc&quot; for the hyperarc connecting one parent node to a number of child nodes in an AND rel...">
<polygon fill="white" stroke="black" points="483,-350 483,-440 565,-440 565,-350 483,-350"/>
<text text-anchor="middle" x="524" y="-428" font-family="Helvetica,sans-Serif" font-size="10.00">HyperArc</text>
<polyline fill="none" stroke="black" points="483,-421 565,-421 "/>
<text text-anchor="start" x="491" y="-409" font-family="Helvetica,sans-Serif" font-size="10.00">+ hIndex</text>
<text text-anchor="start" x="491" y="-398" font-family="Helvetica,sans-Serif" font-size="10.00">+ hCost</text>
<polyline fill="none" stroke="black" points="483,-391 565,-391 "/>
<text text-anchor="start" x="491" y="-379" font-family="Helvetica,sans-Serif" font-size="10.00">+ HyperArc()</text>
<text text-anchor="start" x="491" y="-368" font-family="Helvetica,sans-Serif" font-size="10.00">+ printArcInfo()</text>
<text text-anchor="start" x="491" y="-357" font-family="Helvetica,sans-Serif" font-size="10.00">+ ~HyperArc()</text>
</a>
</g>
</g>
<!-- Node2&#45;&gt;Node7 -->
<g id="edge8" class="edge"><title>Node2&#45;&gt;Node7</title>
<path fill="none" stroke="#404040" d="M350.721,-528.072C388.798,-516.051 437.058,-496.657 473,-468 479.518,-462.803 485.57,-456.562 491.059,-449.955"/>
<polygon fill="none" stroke="#404040" points="491.345,-449.585 491.852,-442.392 498.687,-440.093 498.18,-447.286 491.345,-449.585"/>
<text text-anchor="middle" x="468.5" y="-489.5" font-family="Helvetica,sans-Serif" font-size="10.00"> +children</text>
</g>
<!-- Node3&#45;&gt;Node2 -->
<g id="edge2" class="edge"><title>Node3&#45;&gt;Node2</title>
<path fill="none" stroke="#404040" d="M363.621,-167.761C350.524,-251.49 328.157,-384.424 302,-498 301.505,-500.151 300.972,-502.351 300.415,-504.567"/>
<polygon fill="none" stroke="#404040" points="300.357,-504.785 302.685,-511.61 297.279,-516.383 294.952,-509.558 300.357,-504.785"/>
<text text-anchor="middle" x="367.5" y="-295.5" font-family="Helvetica,sans-Serif" font-size="10.00"> +elements</text>
</g>
<!-- Node4 -->
<g id="node4" class="node"><title>Node4</title>
<g id="a_node4"><a xlink:title="STL class. ">
<polygon fill="white" stroke="#bfbfbf" points="383,-216.5 383,-273.5 443,-273.5 443,-216.5 383,-216.5"/>
<text text-anchor="middle" x="413" y="-261.5" font-family="Helvetica,sans-Serif" font-size="10.00">std::string</text>
<polyline fill="none" stroke="#bfbfbf" points="383,-254.5 443,-254.5 "/>
<text text-anchor="middle" x="413" y="-242.5" font-family="Helvetica,sans-Serif" font-size="10.00"> </text>
<polyline fill="none" stroke="#bfbfbf" points="383,-235.5 443,-235.5 "/>
<text text-anchor="middle" x="413" y="-223.5" font-family="Helvetica,sans-Serif" font-size="10.00"> </text>
</a>
</g>
</g>
<!-- Node4&#45;&gt;Node3 -->
<g id="edge4" class="edge"><title>Node4&#45;&gt;Node3</title>
<path fill="none" stroke="#404040" d="M406.555,-216.304C404.089,-205.707 401.117,-192.934 398.007,-179.571"/>
<polygon fill="none" stroke="#404040" points="397.968,-179.404 392.712,-174.467 395.248,-167.716 400.504,-172.654 397.968,-179.404"/>
<text text-anchor="middle" x="423.5" y="-189.5" font-family="Helvetica,sans-Serif" font-size="10.00"> +nName</text>
</g>
<!-- Node5 -->
<g id="node5" class="node"><title>Node5</title>
<g id="a_node5"><a xlink:title="STL class. ">
<polygon fill="white" stroke="#bfbfbf" points="369.5,-361 369.5,-429 464.5,-429 464.5,-361 369.5,-361"/>
<text text-anchor="start" x="377.5" y="-417" font-family="Helvetica,sans-Serif" font-size="10.00">std::basic_string&lt;</text>
<text text-anchor="middle" x="417" y="-406" font-family="Helvetica,sans-Serif" font-size="10.00"> char &gt;</text>
<polyline fill="none" stroke="#bfbfbf" points="369.5,-399 464.5,-399 "/>
<text text-anchor="middle" x="417" y="-387" font-family="Helvetica,sans-Serif" font-size="10.00"> </text>
<polyline fill="none" stroke="#bfbfbf" points="369.5,-380 464.5,-380 "/>
<text text-anchor="middle" x="417" y="-368" font-family="Helvetica,sans-Serif" font-size="10.00"> </text>
</a>
</g>
</g>
<!-- Node5&#45;&gt;Node4 -->
<g id="edge5" class="edge"><title>Node5&#45;&gt;Node4</title>
<path fill="none" stroke="midnightblue" d="M415.825,-350.518C415.153,-325.665 414.331,-295.244 413.747,-273.645"/>
<polygon fill="none" stroke="midnightblue" points="412.333,-350.884 416.102,-360.786 419.331,-350.695 412.333,-350.884"/>
</g>
<!-- Node6 -->
<g id="node6" class="node"><title>Node6</title>
<polygon fill="white" stroke="#bfbfbf" points="463,-216.5 463,-273.5 585,-273.5 585,-216.5 463,-216.5"/>
<text text-anchor="middle" x="524" y="-261.5" font-family="Helvetica,sans-Serif" font-size="10.00">std::vector&lt; HyperArc &gt;</text>
<polyline fill="none" stroke="#bfbfbf" points="463,-254.5 585,-254.5 "/>
<text text-anchor="middle" x="524" y="-242.5" font-family="Helvetica,sans-Serif" font-size="10.00"> </text>
<polyline fill="none" stroke="#bfbfbf" points="463,-235.5 585,-235.5 "/>
<text text-anchor="middle" x="524" y="-223.5" font-family="Helvetica,sans-Serif" font-size="10.00"> </text>
</g>
<!-- Node6&#45;&gt;Node3 -->
<g id="edge6" class="edge"><title>Node6&#45;&gt;Node3</title>
<path fill="none" stroke="#404040" d="M498.22,-216.304C484.84,-201.929 467.734,-183.552 450.586,-165.13"/>
<polygon fill="none" stroke="#404040" points="450.357,-164.884 443.341,-163.217 442.181,-156.1 449.197,-157.767 450.357,-164.884"/>
<text text-anchor="middle" x="495" y="-189.5" font-family="Helvetica,sans-Serif" font-size="10.00"> +arcs</text>
</g>
<!-- Node7&#45;&gt;Node6 -->
<g id="edge7" class="edge"><title>Node7&#45;&gt;Node6</title>
<path fill="none" stroke="#404040" d="M524,-349.996C524,-329.629 524,-305.614 524,-285.795"/>
<polygon fill="none" stroke="#404040" points="524,-285.763 520,-279.763 524,-273.763 528,-279.763 524,-285.763"/>
<text text-anchor="middle" x="548.5" y="-295.5" font-family="Helvetica,sans-Serif" font-size="10.00"> +elements</text>
</g>
<!-- Node8 -->
<g id="node8" class="node"><title>Node8</title>
<g id="a_node8"><a xlink:title="STL class. ">
<polygon fill="white" stroke="#bfbfbf" points="172.5,-622.5 172.5,-679.5 259.5,-679.5 259.5,-622.5 172.5,-622.5"/>
<text text-anchor="middle" x="216" y="-667.5" font-family="Helvetica,sans-Serif" font-size="10.00">std::vector&lt; T &gt;</text>
<polyline fill="none" stroke="#bfbfbf" points="172.5,-660.5 259.5,-660.5 "/>
<text text-anchor="middle" x="216" y="-648.5" font-family="Helvetica,sans-Serif" font-size="10.00"> </text>
<polyline fill="none" stroke="#bfbfbf" points="172.5,-641.5 259.5,-641.5 "/>
<text text-anchor="middle" x="216" y="-629.5" font-family="Helvetica,sans-Serif" font-size="10.00"> </text>
</a>
</g>
</g>
<!-- Node8&#45;&gt;Node2 -->
<g id="edge11" class="edge"><title>Node8&#45;&gt;Node2</title>
<path fill="none" stroke="orange" d="M241.274,-613.993C250.535,-600.799 260.865,-586.083 269.538,-573.726"/>
<polygon fill="orange" stroke="orange" points="238.252,-612.207 235.371,-622.403 243.981,-616.229 238.252,-612.207"/>
<text text-anchor="middle" x="287" y="-595.5" font-family="Helvetica,sans-Serif" font-size="10.00"> &lt; AOnode * &gt;</text>
</g>
<!-- Node8&#45;&gt;Node6 -->
<g id="edge9" class="edge"><title>Node8&#45;&gt;Node6</title>
<path fill="none" stroke="orange" d="M269.435,-640.875C351.851,-623.599 507.413,-577.521 574,-468 614.642,-401.152 609.471,-363.177 577,-292 573.915,-285.238 569.291,-279.087 564.037,-273.64"/>
<polygon fill="orange" stroke="orange" points="268.62,-637.469 259.516,-642.889 270.013,-644.329 268.62,-637.469"/>
<text text-anchor="middle" x="592.5" y="-489.5" font-family="Helvetica,sans-Serif" font-size="10.00"> &lt; HyperArc &gt;</text>
</g>
<!-- Node10 -->
<g id="node10" class="node"><title>Node10</title>
<polygon fill="white" stroke="#bfbfbf" points="0,-516.5 0,-573.5 92,-573.5 92,-516.5 0,-516.5"/>
<text text-anchor="middle" x="46" y="-561.5" font-family="Helvetica,sans-Serif" font-size="10.00">std::vector&lt; int &gt;</text>
<polyline fill="none" stroke="#bfbfbf" points="0,-554.5 92,-554.5 "/>
<text text-anchor="start" x="8" y="-542.5" font-family="Helvetica,sans-Serif" font-size="10.00">+ elements</text>
<polyline fill="none" stroke="#bfbfbf" points="0,-535.5 92,-535.5 "/>
<text text-anchor="middle" x="46" y="-523.5" font-family="Helvetica,sans-Serif" font-size="10.00"> </text>
</g>
<!-- Node8&#45;&gt;Node10 -->
<g id="edge13" class="edge"><title>Node8&#45;&gt;Node10</title>
<path fill="none" stroke="orange" d="M163.54,-617.907C140.359,-603.726 113.375,-587.218 91.1123,-573.598"/>
<polygon fill="orange" stroke="orange" points="161.864,-620.984 172.221,-623.217 165.517,-615.013 161.864,-620.984"/>
<text text-anchor="middle" x="153" y="-595.5" font-family="Helvetica,sans-Serif" font-size="10.00"> &lt; int &gt;</text>
</g>
<!-- Node11 -->
<g id="node11" class="node"><title>Node11</title>
<polygon fill="white" stroke="#bfbfbf" points="110.5,-516.5 110.5,-573.5 209.5,-573.5 209.5,-516.5 110.5,-516.5"/>
<text text-anchor="middle" x="160" y="-561.5" font-family="Helvetica,sans-Serif" font-size="10.00">std::vector&lt; bool &gt;</text>
<polyline fill="none" stroke="#bfbfbf" points="110.5,-554.5 209.5,-554.5 "/>
<text text-anchor="start" x="118.5" y="-542.5" font-family="Helvetica,sans-Serif" font-size="10.00">+ elements</text>
<polyline fill="none" stroke="#bfbfbf" points="110.5,-535.5 209.5,-535.5 "/>
<text text-anchor="middle" x="160" y="-523.5" font-family="Helvetica,sans-Serif" font-size="10.00"> </text>
</g>
<!-- Node8&#45;&gt;Node11 -->
<g id="edge15" class="edge"><title>Node8&#45;&gt;Node11</title>
<path fill="none" stroke="orange" d="M196.205,-613.237C189.206,-600.239 181.457,-585.848 174.929,-573.726"/>
<polygon fill="orange" stroke="orange" points="193.317,-615.258 201.14,-622.403 199.481,-611.939 193.317,-615.258"/>
<text text-anchor="middle" x="210" y="-595.5" font-family="Helvetica,sans-Serif" font-size="10.00"> &lt; bool &gt;</text>
</g>
<!-- Node9 -->
<g id="node9" class="node"><title>Node9</title>
<polygon fill="white" stroke="#bfbfbf" points="201.5,-728.5 201.5,-785.5 230.5,-785.5 230.5,-728.5 201.5,-728.5"/>
<text text-anchor="middle" x="216" y="-773.5" font-family="Helvetica,sans-Serif" font-size="10.00">T</text>
<polyline fill="none" stroke="#bfbfbf" points="201.5,-766.5 230.5,-766.5 "/>
<text text-anchor="middle" x="216" y="-754.5" font-family="Helvetica,sans-Serif" font-size="10.00"> </text>
<polyline fill="none" stroke="#bfbfbf" points="201.5,-747.5 230.5,-747.5 "/>
<text text-anchor="middle" x="216" y="-735.5" font-family="Helvetica,sans-Serif" font-size="10.00"> </text>
</g>
<!-- Node9&#45;&gt;Node8 -->
<g id="edge10" class="edge"><title>Node9&#45;&gt;Node8</title>
<path fill="none" stroke="#404040" d="M216,-728.403C216,-717.237 216,-704.13 216,-691.956"/>
<polygon fill="none" stroke="#404040" points="216,-691.726 212,-685.726 216,-679.726 220,-685.726 216,-691.726"/>
<text text-anchor="middle" x="240.5" y="-701.5" font-family="Helvetica,sans-Serif" font-size="10.00"> +elements</text>
</g>
<!-- Node10&#45;&gt;Node1 -->
<g id="edge12" class="edge"><title>Node10&#45;&gt;Node1</title>
<path fill="none" stroke="#404040" d="M52.5119,-516.325C55.2284,-506.544 58.7517,-495.595 63,-486 64.5082,-482.594 66.1241,-479.16 67.821,-475.726"/>
<polygon fill="none" stroke="#404040" points="67.9677,-475.442 67.1729,-468.275 73.4831,-464.785 74.2779,-471.952 67.9677,-475.442"/>
<text text-anchor="middle" x="87.5" y="-489.5" font-family="Helvetica,sans-Serif" font-size="10.00"> +pathArcs</text>
</g>
<!-- Node11&#45;&gt;Node1 -->
<g id="edge14" class="edge"><title>Node11&#45;&gt;Node1</title>
<path fill="none" stroke="#404040" d="M129.978,-516.479C125.504,-510.833 121.546,-504.586 119,-498 116.763,-492.212 115.119,-486.098 113.948,-479.855"/>
<polygon fill="none" stroke="#404040" points="113.916,-479.627 109.121,-474.241 112.249,-467.743 117.044,-473.129 113.916,-479.627"/>
<text text-anchor="middle" x="156.5" y="-489.5" font-family="Helvetica,sans-Serif" font-size="10.00"> +checkedNodes</text>
</g>
</g>
</svg>
