<?xml version="1.0" encoding="UTF-8" standalone="no"?>
<!DOCTYPE svg PUBLIC "-//W3C//DTD SVG 1.1//EN"
 "http://www.w3.org/Graphics/SVG/1.1/DTD/svg11.dtd">
<!-- Generated by graphviz version 2.36.0 (20140111.2315)
 -->
<!-- Title: HyperArc Pages: 1 -->
<svg width="365pt" height="634pt"
 viewBox="0.00 0.00 365.00 634.00" xmlns="http://www.w3.org/2000/svg" xmlns:xlink="http://www.w3.org/1999/xlink">
<g id="graph0" class="graph" transform="scale(1 1) rotate(0) translate(4 630)">
<title>HyperArc</title>
<polygon fill="white" stroke="none" points="-4,4 -4,-630 361,-630 361,4 -4,4"/>
<!-- Node1 -->
<g id="node1" class="node"><title>Node1</title>
<polygon fill="#bfbfbf" stroke="black" points="0,-429 0,-519 82,-519 82,-429 0,-429"/>
<text text-anchor="middle" x="41" y="-507" font-family="Helvetica,sans-Serif" font-size="10.00">HyperArc</text>
<polyline fill="none" stroke="black" points="0,-500 82,-500 "/>
<text text-anchor="start" x="8" y="-488" font-family="Helvetica,sans-Serif" font-size="10.00">+ hIndex</text>
<text text-anchor="start" x="8" y="-477" font-family="Helvetica,sans-Serif" font-size="10.00">+ hCost</text>
<polyline fill="none" stroke="black" points="0,-470 82,-470 "/>
<text text-anchor="start" x="8" y="-458" font-family="Helvetica,sans-Serif" font-size="10.00">+ HyperArc()</text>
<text text-anchor="start" x="8" y="-447" font-family="Helvetica,sans-Serif" font-size="10.00">+ printArcInfo()</text>
<text text-anchor="start" x="8" y="-436" font-family="Helvetica,sans-Serif" font-size="10.00">+ ~HyperArc()</text>
</g>
<!-- Node6 -->
<g id="node6" class="node"><title>Node6</title>
<polygon fill="white" stroke="#bfbfbf" points="147,-322.5 147,-379.5 269,-379.5 269,-322.5 147,-322.5"/>
<text text-anchor="middle" x="208" y="-367.5" font-family="Helvetica,sans-Serif" font-size="10.00">std::vector&lt; HyperArc &gt;</text>
<polyline fill="none" stroke="#bfbfbf" points="147,-360.5 269,-360.5 "/>
<text text-anchor="middle" x="208" y="-348.5" font-family="Helvetica,sans-Serif" font-size="10.00"> </text>
<polyline fill="none" stroke="#bfbfbf" points="147,-341.5 269,-341.5 "/>
<text text-anchor="middle" x="208" y="-329.5" font-family="Helvetica,sans-Serif" font-size="10.00"> </text>
</g>
<!-- Node1&#45;&gt;Node6 -->
<g id="edge7" class="edge"><title>Node1&#45;&gt;Node6</title>
<path fill="none" stroke="#404040" d="M82.0414,-435.159C85.03,-432.684 88.035,-430.275 91,-428 110.059,-413.377 131.91,-398.678 151.53,-386.156"/>
<polygon fill="none" stroke="#404040" points="151.718,-386.038 154.655,-379.452 161.863,-379.629 158.927,-386.215 151.718,-386.038"/>
<text text-anchor="middle" x="156.5" y="-401.5" font-family="Helvetica,sans-Serif" font-size="10.00"> +elements</text>
</g>
<!-- Node2 -->
<g id="node2" class="node"><title>Node2</title>
<polygon fill="white" stroke="#bfbfbf" points="77.5,-0.5 77.5,-57.5 200.5,-57.5 200.5,-0.5 77.5,-0.5"/>
<text text-anchor="middle" x="139" y="-45.5" font-family="Helvetica,sans-Serif" font-size="10.00">std::vector&lt; AOnode * &gt;</text>
<polyline fill="none" stroke="#bfbfbf" points="77.5,-38.5 200.5,-38.5 "/>
<text text-anchor="middle" x="139" y="-26.5" font-family="Helvetica,sans-Serif" font-size="10.00"> </text>
<polyline fill="none" stroke="#bfbfbf" points="77.5,-19.5 200.5,-19.5 "/>
<text text-anchor="middle" x="139" y="-7.5" font-family="Helvetica,sans-Serif" font-size="10.00"> </text>
</g>
<!-- Node2&#45;&gt;Node1 -->
<g id="edge1" class="edge"><title>Node2&#45;&gt;Node1</title>
<path fill="none" stroke="#404040" d="M110.687,-57.6892C106.166,-63.3609 101.998,-69.5741 99,-76 46.4504,-188.648 38.98,-337.158 39.2761,-416.794"/>
<polygon fill="none" stroke="#404040" points="39.2776,-416.968 43.3309,-422.932 39.3846,-428.968 35.3312,-423.004 39.2776,-416.968"/>
<text text-anchor="middle" x="67.5" y="-295.5" font-family="Helvetica,sans-Serif" font-size="10.00"> +children</text>
</g>
<!-- Node3 -->
<g id="node3" class="node"><title>Node3</title>
<g id="a_node3"><a xlink:href="../../d6/d22/classAOnode.xhtml" target="_top" xlink:title="class &quot;AOnode&quot; for the generic node element of an AND&#45;OR graph ">
<polygon fill="white" stroke="black" points="104,-106.5 104,-273.5 236,-273.5 236,-106.5 104,-106.5"/>
<text text-anchor="middle" x="170" y="-261.5" font-family="Helvetica,sans-Serif" font-size="10.00">AOnode</text>
<polyline fill="none" stroke="black" points="104,-254.5 236,-254.5 "/>
<text text-anchor="start" x="112" y="-242.5" font-family="Helvetica,sans-Serif" font-size="10.00">+ nCost</text>
<text text-anchor="start" x="112" y="-231.5" font-family="Helvetica,sans-Serif" font-size="10.00">+ nSolved</text>
<text text-anchor="start" x="112" y="-220.5" font-family="Helvetica,sans-Serif" font-size="10.00">+ nFeasible</text>
<polyline fill="none" stroke="black" points="104,-213.5 236,-213.5 "/>
<text text-anchor="start" x="112" y="-201.5" font-family="Helvetica,sans-Serif" font-size="10.00">+ AOnode()</text>
<text text-anchor="start" x="112" y="-190.5" font-family="Helvetica,sans-Serif" font-size="10.00">+ addArc()</text>
<text text-anchor="start" x="112" y="-179.5" font-family="Helvetica,sans-Serif" font-size="10.00">+ printNodeInfo()</text>
<text text-anchor="start" x="112" y="-168.5" font-family="Helvetica,sans-Serif" font-size="10.00">+ printNodeFeasibiltyInfo()</text>
<text text-anchor="start" x="112" y="-157.5" font-family="Helvetica,sans-Serif" font-size="10.00">+ printNodeSolveInfo()</text>
<text text-anchor="start" x="112" y="-146.5" font-family="Helvetica,sans-Serif" font-size="10.00">+ printNodeNameInfo()</text>
<text text-anchor="start" x="112" y="-135.5" font-family="Helvetica,sans-Serif" font-size="10.00">+ isFeasible()</text>
<text text-anchor="start" x="112" y="-124.5" font-family="Helvetica,sans-Serif" font-size="10.00">+ setSolved()</text>
<text text-anchor="start" x="112" y="-113.5" font-family="Helvetica,sans-Serif" font-size="10.00">+ ~AOnode()</text>
</a>
</g>
</g>
<!-- Node2&#45;&gt;Node3 -->
<g id="edge3" class="edge"><title>Node2&#45;&gt;Node3</title>
<path fill="none" stroke="#404040" d="M148.101,-57.5552C149.893,-63.5892 151.638,-69.9748 153,-76 154.346,-81.9547 155.615,-88.1107 156.805,-94.3335"/>
<polygon fill="none" stroke="#404040" points="156.843,-94.5421 161.854,-99.7272 158.995,-106.347 153.984,-101.162 156.843,-94.5421"/>
<text text-anchor="middle" x="176" y="-79.5" font-family="Helvetica,sans-Serif" font-size="10.00"> +parents</text>
</g>
<!-- Node3&#45;&gt;Node2 -->
<g id="edge2" class="edge"><title>Node3&#45;&gt;Node2</title>
<path fill="none" stroke="#404040" d="M110.831,-106.212C108.149,-100.221 105.823,-94.123 104,-88 102.028,-81.3779 102.805,-74.7405 105.172,-68.4437"/>
<polygon fill="none" stroke="#404040" points="105.314,-68.174 104.568,-61.0016 110.901,-57.5541 111.647,-64.7265 105.314,-68.174"/>
<text text-anchor="middle" x="128.5" y="-79.5" font-family="Helvetica,sans-Serif" font-size="10.00"> +elements</text>
</g>
<!-- Node4 -->
<g id="node4" class="node"><title>Node4</title>
<g id="a_node4"><a xlink:title="STL class. ">
<polygon fill="white" stroke="#bfbfbf" points="69,-322.5 69,-379.5 129,-379.5 129,-322.5 69,-322.5"/>
<text text-anchor="middle" x="99" y="-367.5" font-family="Helvetica,sans-Serif" font-size="10.00">std::string</text>
<polyline fill="none" stroke="#bfbfbf" points="69,-360.5 129,-360.5 "/>
<text text-anchor="middle" x="99" y="-348.5" font-family="Helvetica,sans-Serif" font-size="10.00"> </text>
<polyline fill="none" stroke="#bfbfbf" points="69,-341.5 129,-341.5 "/>
<text text-anchor="middle" x="99" y="-329.5" font-family="Helvetica,sans-Serif" font-size="10.00"> </text>
</a>
</g>
</g>
<!-- Node4&#45;&gt;Node3 -->
<g id="edge4" class="edge"><title>Node4&#45;&gt;Node3</title>
<path fill="none" stroke="#404040" d="M111.367,-322.304C116.195,-311.493 122.034,-298.417 128.132,-284.761"/>
<polygon fill="none" stroke="#404040" points="128.171,-284.673 126.965,-277.564 133.064,-273.716 134.27,-280.826 128.171,-284.673"/>
<text text-anchor="middle" x="144.5" y="-295.5" font-family="Helvetica,sans-Serif" font-size="10.00"> +nName</text>
</g>
<!-- Node5 -->
<g id="node5" class="node"><title>Node5</title>
<g id="a_node5"><a xlink:title="STL class. ">
<polygon fill="white" stroke="#bfbfbf" points="100.5,-440 100.5,-508 195.5,-508 195.5,-440 100.5,-440"/>
<text text-anchor="start" x="108.5" y="-496" font-family="Helvetica,sans-Serif" font-size="10.00">std::basic_string&lt;</text>
<text text-anchor="middle" x="148" y="-485" font-family="Helvetica,sans-Serif" font-size="10.00"> char &gt;</text>
<polyline fill="none" stroke="#bfbfbf" points="100.5,-478 195.5,-478 "/>
<text text-anchor="middle" x="148" y="-466" font-family="Helvetica,sans-Serif" font-size="10.00"> </text>
<polyline fill="none" stroke="#bfbfbf" points="100.5,-459 195.5,-459 "/>
<text text-anchor="middle" x="148" y="-447" font-family="Helvetica,sans-Serif" font-size="10.00"> </text>
</a>
</g>
</g>
<!-- Node5&#45;&gt;Node4 -->
<g id="edge5" class="edge"><title>Node5&#45;&gt;Node4</title>
<path fill="none" stroke="midnightblue" d="M141.977,-429.933C139.63,-419.226 136.406,-407.966 132,-398 129.218,-391.707 125.49,-385.417 121.542,-379.597"/>
<polygon fill="none" stroke="midnightblue" points="138.59,-430.842 143.97,-439.969 145.456,-429.479 138.59,-430.842"/>
</g>
<!-- Node6&#45;&gt;Node3 -->
<g id="edge6" class="edge"><title>Node6&#45;&gt;Node3</title>
<path fill="none" stroke="#404040" d="M201.381,-322.304C198.848,-311.707 195.795,-298.934 192.602,-285.571"/>
<polygon fill="none" stroke="#404040" points="192.558,-285.388 187.273,-280.482 189.769,-273.716 195.054,-278.622 192.558,-285.388"/>
<text text-anchor="middle" x="211" y="-295.5" font-family="Helvetica,sans-Serif" font-size="10.00"> +arcs</text>
</g>
<!-- Node7 -->
<g id="node7" class="node"><title>Node7</title>
<g id="a_node7"><a xlink:title="STL class. ">
<polygon fill="white" stroke="#bfbfbf" points="233.5,-445.5 233.5,-502.5 320.5,-502.5 320.5,-445.5 233.5,-445.5"/>
<text text-anchor="middle" x="277" y="-490.5" font-family="Helvetica,sans-Serif" font-size="10.00">std::vector&lt; T &gt;</text>
<polyline fill="none" stroke="#bfbfbf" points="233.5,-483.5 320.5,-483.5 "/>
<text text-anchor="middle" x="277" y="-471.5" font-family="Helvetica,sans-Serif" font-size="10.00"> </text>
<polyline fill="none" stroke="#bfbfbf" points="233.5,-464.5 320.5,-464.5 "/>
<text text-anchor="middle" x="277" y="-452.5" font-family="Helvetica,sans-Serif" font-size="10.00"> </text>
</a>
</g>
</g>
<!-- Node7&#45;&gt;Node2 -->
<g id="edge10" class="edge"><title>Node7&#45;&gt;Node2</title>
<path fill="none" stroke="orange" d="M284.097,-434.909C295.152,-364.232 309.091,-210.491 245,-106 232.746,-86.0219 213.074,-69.7754 193.986,-57.5086"/>
<polygon fill="orange" stroke="orange" points="280.587,-434.685 282.428,-445.119 287.495,-435.814 280.587,-434.685"/>
<text text-anchor="middle" x="325" y="-295.5" font-family="Helvetica,sans-Serif" font-size="10.00"> &lt; AOnode * &gt;</text>
</g>
<!-- Node7&#45;&gt;Node6 -->
<g id="edge8" class="edge"><title>Node7&#45;&gt;Node6</title>
<path fill="none" stroke="orange" d="M239.329,-437.857C231.979,-429.364 225.009,-419.868 220,-410 215.253,-400.648 212.383,-389.54 210.649,-379.561"/>
<polygon fill="orange" stroke="orange" points="236.827,-440.308 246.141,-445.358 242.009,-435.602 236.827,-440.308"/>
<text text-anchor="middle" x="251.5" y="-401.5" font-family="Helvetica,sans-Serif" font-size="10.00"> &lt; HyperArc &gt;</text>
</g>
<!-- Node8 -->
<g id="node8" class="node"><title>Node8</title>
<polygon fill="white" stroke="#bfbfbf" points="262.5,-568.5 262.5,-625.5 291.5,-625.5 291.5,-568.5 262.5,-568.5"/>
<text text-anchor="middle" x="277" y="-613.5" font-family="Helvetica,sans-Serif" font-size="10.00">T</text>
<polyline fill="none" stroke="#bfbfbf" points="262.5,-606.5 291.5,-606.5 "/>
<text text-anchor="middle" x="277" y="-594.5" font-family="Helvetica,sans-Serif" font-size="10.00"> </text>
<polyline fill="none" stroke="#bfbfbf" points="262.5,-587.5 291.5,-587.5 "/>
<text text-anchor="middle" x="277" y="-575.5" font-family="Helvetica,sans-Serif" font-size="10.00"> </text>
</g>
<!-- Node8&#45;&gt;Node7 -->
<g id="edge9" class="edge"><title>Node8&#45;&gt;Node7</title>
<path fill="none" stroke="#404040" d="M277,-568.24C277,-552.407 277,-532.294 277,-514.804"/>
<polygon fill="none" stroke="#404040" points="277,-514.631 273,-508.631 277,-502.631 281,-508.631 277,-514.631"/>
<text text-anchor="middle" x="301.5" y="-541.5" font-family="Helvetica,sans-Serif" font-size="10.00"> +elements</text>
</g>
</g>
</svg>
