<?xml version="1.0" encoding="UTF-8" standalone="no"?>
<!DOCTYPE svg PUBLIC "-//W3C//DTD SVG 1.1//EN"
 "http://www.w3.org/Graphics/SVG/1.1/DTD/svg11.dtd">
<!-- Generated by graphviz version 2.36.0 (20140111.2315)
 -->
<!-- Title: AOgraph Pages: 1 -->
<svg width="721pt" height="1110pt"
 viewBox="0.00 0.00 721.00 1110.00" xmlns="http://www.w3.org/2000/svg" xmlns:xlink="http://www.w3.org/1999/xlink">
<g id="graph0" class="graph" transform="scale(1 1) rotate(0) translate(4 1106)">
<title>AOgraph</title>
<polygon fill="white" stroke="none" points="-4,4 -4,-1106 717,-1106 717,4 -4,4"/>
<!-- Node1 -->
<g id="node1" class="node"><title>Node1</title>
<polygon fill="#bfbfbf" stroke="black" points="297.5,-0.5 297.5,-255.5 428.5,-255.5 428.5,-0.5 297.5,-0.5"/>
<text text-anchor="middle" x="363" y="-243.5" font-family="Helvetica,sans-Serif" font-size="10.00">AOgraph</text>
<polyline fill="none" stroke="black" points="297.5,-236.5 428.5,-236.5 "/>
<text text-anchor="middle" x="363" y="-224.5" font-family="Helvetica,sans-Serif" font-size="10.00"> </text>
<polyline fill="none" stroke="black" points="297.5,-217.5 428.5,-217.5 "/>
<text text-anchor="start" x="305.5" y="-205.5" font-family="Helvetica,sans-Serif" font-size="10.00">+ AOgraph()</text>
<text text-anchor="start" x="305.5" y="-194.5" font-family="Helvetica,sans-Serif" font-size="10.00">+ loadFromFile()</text>
<text text-anchor="start" x="305.5" y="-183.5" font-family="Helvetica,sans-Serif" font-size="10.00">+ printGraphInfo()</text>
<text text-anchor="start" x="305.5" y="-172.5" font-family="Helvetica,sans-Serif" font-size="10.00">+ NodeFeasibiltyInfo()</text>
<text text-anchor="start" x="305.5" y="-161.5" font-family="Helvetica,sans-Serif" font-size="10.00">+ NodeSolveInfo()</text>
<text text-anchor="start" x="305.5" y="-150.5" font-family="Helvetica,sans-Serif" font-size="10.00">+ NodeNameInfo()</text>
<text text-anchor="start" x="305.5" y="-139.5" font-family="Helvetica,sans-Serif" font-size="10.00">+ suggestNext()</text>
<text text-anchor="start" x="305.5" y="-128.5" font-family="Helvetica,sans-Serif" font-size="10.00">+ solveByName()</text>
<text text-anchor="start" x="305.5" y="-117.5" font-family="Helvetica,sans-Serif" font-size="10.00">+ ~AOgraph()</text>
<text text-anchor="start" x="305.5" y="-106.5" font-family="Helvetica,sans-Serif" font-size="10.00"># addNode()</text>
<text text-anchor="start" x="305.5" y="-95.5" font-family="Helvetica,sans-Serif" font-size="10.00"># findByName()</text>
<text text-anchor="start" x="305.5" y="-84.5" font-family="Helvetica,sans-Serif" font-size="10.00"># updateNodeFeasibility()</text>
<text text-anchor="start" x="305.5" y="-73.5" font-family="Helvetica,sans-Serif" font-size="10.00"># computeAddCost()</text>
<text text-anchor="start" x="305.5" y="-62.5" font-family="Helvetica,sans-Serif" font-size="10.00"># generatePaths()</text>
<text text-anchor="start" x="305.5" y="-51.5" font-family="Helvetica,sans-Serif" font-size="10.00"># setupGraph()</text>
<text text-anchor="start" x="305.5" y="-40.5" font-family="Helvetica,sans-Serif" font-size="10.00"># findHyperarc()</text>
<text text-anchor="start" x="305.5" y="-29.5" font-family="Helvetica,sans-Serif" font-size="10.00"># computeOverallUpdate()</text>
<text text-anchor="start" x="305.5" y="-18.5" font-family="Helvetica,sans-Serif" font-size="10.00"># updatePaths()</text>
<text text-anchor="start" x="305.5" y="-7.5" font-family="Helvetica,sans-Serif" font-size="10.00"># findOptimalPath()</text>
</g>
<!-- Node2 -->
<g id="node2" class="node"><title>Node2</title>
<g id="a_node2"><a xlink:title="STL class. ">
<polygon fill="white" stroke="#bfbfbf" points="27,-936.5 27,-993.5 87,-993.5 87,-936.5 27,-936.5"/>
<text text-anchor="middle" x="57" y="-981.5" font-family="Helvetica,sans-Serif" font-size="10.00">std::string</text>
<polyline fill="none" stroke="#bfbfbf" points="27,-974.5 87,-974.5 "/>
<text text-anchor="middle" x="57" y="-962.5" font-family="Helvetica,sans-Serif" font-size="10.00"> </text>
<polyline fill="none" stroke="#bfbfbf" points="27,-955.5 87,-955.5 "/>
<text text-anchor="middle" x="57" y="-943.5" font-family="Helvetica,sans-Serif" font-size="10.00"> </text>
</a>
</g>
</g>
<!-- Node2&#45;&gt;Node1 -->
<g id="edge1" class="edge"><title>Node2&#45;&gt;Node1</title>
<path fill="none" stroke="#404040" d="M40.5132,-936.352C23.679,-905.451 0,-853.385 0,-805 0,-805 0,-805 0,-332 0,-202.333 178.623,-154.693 285.268,-137.805"/>
<polygon fill="none" stroke="#404040" points="285.399,-137.785 290.732,-132.931 297.263,-135.986 291.931,-140.84 285.399,-137.785"/>
<text text-anchor="middle" x="20.5" y="-587.5" font-family="Helvetica,sans-Serif" font-size="10.00"> +gName</text>
</g>
<!-- Node8 -->
<g id="node8" class="node"><title>Node8</title>
<g id="a_node8"><a xlink:href="../../d6/d22/classAOnode.xhtml" target="_top" xlink:title="class &quot;AOnode&quot; for the generic node element of an AND&#45;OR graph ">
<polygon fill="white" stroke="black" points="38,-720.5 38,-887.5 170,-887.5 170,-720.5 38,-720.5"/>
<text text-anchor="middle" x="104" y="-875.5" font-family="Helvetica,sans-Serif" font-size="10.00">AOnode</text>
<polyline fill="none" stroke="black" points="38,-868.5 170,-868.5 "/>
<text text-anchor="start" x="46" y="-856.5" font-family="Helvetica,sans-Serif" font-size="10.00">+ nCost</text>
<text text-anchor="start" x="46" y="-845.5" font-family="Helvetica,sans-Serif" font-size="10.00">+ nSolved</text>
<text text-anchor="start" x="46" y="-834.5" font-family="Helvetica,sans-Serif" font-size="10.00">+ nFeasible</text>
<polyline fill="none" stroke="black" points="38,-827.5 170,-827.5 "/>
<text text-anchor="start" x="46" y="-815.5" font-family="Helvetica,sans-Serif" font-size="10.00">+ AOnode()</text>
<text text-anchor="start" x="46" y="-804.5" font-family="Helvetica,sans-Serif" font-size="10.00">+ addArc()</text>
<text text-anchor="start" x="46" y="-793.5" font-family="Helvetica,sans-Serif" font-size="10.00">+ printNodeInfo()</text>
<text text-anchor="start" x="46" y="-782.5" font-family="Helvetica,sans-Serif" font-size="10.00">+ printNodeFeasibiltyInfo()</text>
<text text-anchor="start" x="46" y="-771.5" font-family="Helvetica,sans-Serif" font-size="10.00">+ printNodeSolveInfo()</text>
<text text-anchor="start" x="46" y="-760.5" font-family="Helvetica,sans-Serif" font-size="10.00">+ printNodeNameInfo()</text>
<text text-anchor="start" x="46" y="-749.5" font-family="Helvetica,sans-Serif" font-size="10.00">+ isFeasible()</text>
<text text-anchor="start" x="46" y="-738.5" font-family="Helvetica,sans-Serif" font-size="10.00">+ setSolved()</text>
<text text-anchor="start" x="46" y="-727.5" font-family="Helvetica,sans-Serif" font-size="10.00">+ ~AOnode()</text>
</a>
</g>
</g>
<!-- Node2&#45;&gt;Node8 -->
<g id="edge11" class="edge"><title>Node2&#45;&gt;Node8</title>
<path fill="none" stroke="#404040" d="M65.1868,-936.304C68.3194,-925.707 72.0951,-912.934 76.045,-899.571"/>
<polygon fill="none" stroke="#404040" points="76.1475,-899.224 74.0125,-892.336 79.5493,-887.716 81.6843,-894.604 76.1475,-899.224"/>
<text text-anchor="middle" x="94.5" y="-909.5" font-family="Helvetica,sans-Serif" font-size="10.00"> +nName</text>
</g>
<!-- Node3 -->
<g id="node3" class="node"><title>Node3</title>
<g id="a_node3"><a xlink:title="STL class. ">
<polygon fill="white" stroke="#bfbfbf" points="9.5,-1033 9.5,-1101 104.5,-1101 104.5,-1033 9.5,-1033"/>
<text text-anchor="start" x="17.5" y="-1089" font-family="Helvetica,sans-Serif" font-size="10.00">std::basic_string&lt;</text>
<text text-anchor="middle" x="57" y="-1078" font-family="Helvetica,sans-Serif" font-size="10.00"> char &gt;</text>
<polyline fill="none" stroke="#bfbfbf" points="9.5,-1071 104.5,-1071 "/>
<text text-anchor="middle" x="57" y="-1059" font-family="Helvetica,sans-Serif" font-size="10.00"> </text>
<polyline fill="none" stroke="#bfbfbf" points="9.5,-1052 104.5,-1052 "/>
<text text-anchor="middle" x="57" y="-1040" font-family="Helvetica,sans-Serif" font-size="10.00"> </text>
</a>
</g>
</g>
<!-- Node3&#45;&gt;Node2 -->
<g id="edge2" class="edge"><title>Node3&#45;&gt;Node2</title>
<path fill="none" stroke="midnightblue" d="M57,-1022.86C57,-1012.95 57,-1002.68 57,-993.64"/>
<polygon fill="none" stroke="midnightblue" points="53.5001,-1022.98 57,-1032.98 60.5001,-1022.98 53.5001,-1022.98"/>
</g>
<!-- Node4 -->
<g id="node4" class="node"><title>Node4</title>
<polygon fill="white" stroke="#bfbfbf" points="557,-614.5 557,-671.5 649,-671.5 649,-614.5 557,-614.5"/>
<text text-anchor="middle" x="603" y="-659.5" font-family="Helvetica,sans-Serif" font-size="10.00">std::vector&lt; int &gt;</text>
<polyline fill="none" stroke="#bfbfbf" points="557,-652.5 649,-652.5 "/>
<text text-anchor="start" x="565" y="-640.5" font-family="Helvetica,sans-Serif" font-size="10.00">+ elements</text>
<polyline fill="none" stroke="#bfbfbf" points="557,-633.5 649,-633.5 "/>
<text text-anchor="middle" x="603" y="-621.5" font-family="Helvetica,sans-Serif" font-size="10.00"> </text>
</g>
<!-- Node4&#45;&gt;Node1 -->
<g id="edge3" class="edge"><title>Node4&#45;&gt;Node1</title>
<path fill="none" stroke="#404040" d="M616.142,-614.339C619.292,-604.851 621.395,-594.082 620,-584 602.277,-455.918 606.862,-415.272 541,-304 514.556,-259.325 473.884,-218.14 438.089,-186.962"/>
<polygon fill="none" stroke="#404040" points="437.734,-186.658 430.576,-185.79 428.624,-178.848 435.782,-179.716 437.734,-186.658"/>
<text text-anchor="middle" x="611" y="-394" font-family="Helvetica,sans-Serif" font-size="10.00"> +pUpdate</text>
<text text-anchor="middle" x="611" y="-383" font-family="Helvetica,sans-Serif" font-size="10.00">+pIndices</text>
</g>
<!-- Node13 -->
<g id="node13" class="node"><title>Node13</title>
<g id="a_node13"><a xlink:href="../../db/dc7/classPath.xhtml" target="_top" xlink:title="class &quot;Path&quot; for each unique path traversing the graph from the head to the leaves ...">
<polygon fill="white" stroke="black" points="437.5,-420.5 437.5,-565.5 526.5,-565.5 526.5,-420.5 437.5,-420.5"/>
<text text-anchor="middle" x="482" y="-553.5" font-family="Helvetica,sans-Serif" font-size="10.00">Path</text>
<polyline fill="none" stroke="black" points="437.5,-546.5 526.5,-546.5 "/>
<text text-anchor="start" x="445.5" y="-534.5" font-family="Helvetica,sans-Serif" font-size="10.00">+ pIndex</text>
<text text-anchor="start" x="445.5" y="-523.5" font-family="Helvetica,sans-Serif" font-size="10.00">+ pCost</text>
<text text-anchor="start" x="445.5" y="-512.5" font-family="Helvetica,sans-Serif" font-size="10.00">+ pComplete</text>
<polyline fill="none" stroke="black" points="437.5,-505.5 526.5,-505.5 "/>
<text text-anchor="start" x="445.5" y="-493.5" font-family="Helvetica,sans-Serif" font-size="10.00">+ Path()</text>
<text text-anchor="start" x="445.5" y="-482.5" font-family="Helvetica,sans-Serif" font-size="10.00">+ Path()</text>
<text text-anchor="start" x="445.5" y="-471.5" font-family="Helvetica,sans-Serif" font-size="10.00">+ printPathInfo()</text>
<text text-anchor="start" x="445.5" y="-460.5" font-family="Helvetica,sans-Serif" font-size="10.00">+ addNode()</text>
<text text-anchor="start" x="445.5" y="-449.5" font-family="Helvetica,sans-Serif" font-size="10.00">+ updatePath()</text>
<text text-anchor="start" x="445.5" y="-438.5" font-family="Helvetica,sans-Serif" font-size="10.00">+ suggestNode()</text>
<text text-anchor="start" x="445.5" y="-427.5" font-family="Helvetica,sans-Serif" font-size="10.00">+ ~Path()</text>
</a>
</g>
</g>
<!-- Node4&#45;&gt;Node13 -->
<g id="edge20" class="edge"><title>Node4&#45;&gt;Node13</title>
<path fill="none" stroke="#404040" d="M581.942,-614.378C574.468,-604.702 565.939,-593.806 558,-584 550.472,-574.702 542.416,-564.953 534.466,-555.446"/>
<polygon fill="none" stroke="#404040" points="534.29,-555.236 527.369,-553.212 526.576,-546.044 533.497,-548.069 534.29,-555.236"/>
<text text-anchor="middle" x="591.5" y="-587.5" font-family="Helvetica,sans-Serif" font-size="10.00"> +pathArcs</text>
</g>
<!-- Node5 -->
<g id="node5" class="node"><title>Node5</title>
<g id="a_node5"><a xlink:title="STL class. ">
<polygon fill="white" stroke="#bfbfbf" points="431.5,-775.5 431.5,-832.5 518.5,-832.5 518.5,-775.5 431.5,-775.5"/>
<text text-anchor="middle" x="475" y="-820.5" font-family="Helvetica,sans-Serif" font-size="10.00">std::vector&lt; T &gt;</text>
<polyline fill="none" stroke="#bfbfbf" points="431.5,-813.5 518.5,-813.5 "/>
<text text-anchor="middle" x="475" y="-801.5" font-family="Helvetica,sans-Serif" font-size="10.00"> </text>
<polyline fill="none" stroke="#bfbfbf" points="431.5,-794.5 518.5,-794.5 "/>
<text text-anchor="middle" x="475" y="-782.5" font-family="Helvetica,sans-Serif" font-size="10.00"> </text>
</a>
</g>
</g>
<!-- Node5&#45;&gt;Node4 -->
<g id="edge4" class="edge"><title>Node5&#45;&gt;Node4</title>
<path fill="none" stroke="orange" d="M503.61,-767.461C526.914,-738.513 559.35,-698.221 580.745,-671.645"/>
<polygon fill="orange" stroke="orange" points="500.84,-765.32 497.296,-775.304 506.293,-769.71 500.84,-765.32"/>
<text text-anchor="middle" x="582" y="-693.5" font-family="Helvetica,sans-Serif" font-size="10.00"> &lt; int &gt;</text>
</g>
<!-- Node7 -->
<g id="node7" class="node"><title>Node7</title>
<polygon fill="white" stroke="#bfbfbf" points="305,-614.5 305,-671.5 421,-671.5 421,-614.5 305,-614.5"/>
<text text-anchor="middle" x="363" y="-659.5" font-family="Helvetica,sans-Serif" font-size="10.00">std::vector&lt; AOnode &gt;</text>
<polyline fill="none" stroke="#bfbfbf" points="305,-652.5 421,-652.5 "/>
<text text-anchor="middle" x="363" y="-640.5" font-family="Helvetica,sans-Serif" font-size="10.00"> </text>
<polyline fill="none" stroke="#bfbfbf" points="305,-633.5 421,-633.5 "/>
<text text-anchor="middle" x="363" y="-621.5" font-family="Helvetica,sans-Serif" font-size="10.00"> </text>
</g>
<!-- Node5&#45;&gt;Node7 -->
<g id="edge16" class="edge"><title>Node5&#45;&gt;Node7</title>
<path fill="none" stroke="orange" d="M458.674,-766.343C447.512,-743.279 431.433,-713.535 413,-690 407.982,-683.593 402.036,-677.297 396.028,-671.519"/>
<polygon fill="orange" stroke="orange" points="455.552,-767.928 463.001,-775.462 461.876,-764.927 455.552,-767.928"/>
<text text-anchor="middle" x="450.5" y="-693.5" font-family="Helvetica,sans-Serif" font-size="10.00"> &lt; AOnode &gt;</text>
</g>
<!-- Node9 -->
<g id="node9" class="node"><title>Node9</title>
<polygon fill="white" stroke="#bfbfbf" points="123.5,-614.5 123.5,-671.5 246.5,-671.5 246.5,-614.5 123.5,-614.5"/>
<text text-anchor="middle" x="185" y="-659.5" font-family="Helvetica,sans-Serif" font-size="10.00">std::vector&lt; AOnode * &gt;</text>
<polyline fill="none" stroke="#bfbfbf" points="123.5,-652.5 246.5,-652.5 "/>
<text text-anchor="middle" x="185" y="-640.5" font-family="Helvetica,sans-Serif" font-size="10.00"> </text>
<polyline fill="none" stroke="#bfbfbf" points="123.5,-633.5 246.5,-633.5 "/>
<text text-anchor="middle" x="185" y="-621.5" font-family="Helvetica,sans-Serif" font-size="10.00"> </text>
</g>
<!-- Node5&#45;&gt;Node9 -->
<g id="edge10" class="edge"><title>Node5&#45;&gt;Node9</title>
<path fill="none" stroke="orange" d="M421.592,-783.843C374.982,-765.972 306.472,-736.869 252,-702 238.395,-693.291 224.679,-681.969 213.231,-671.642"/>
<polygon fill="orange" stroke="orange" points="420.602,-787.21 431.193,-787.484 423.084,-780.665 420.602,-787.21"/>
<text text-anchor="middle" x="284" y="-693.5" font-family="Helvetica,sans-Serif" font-size="10.00"> &lt; AOnode * &gt;</text>
</g>
<!-- Node10 -->
<g id="node10" class="node"><title>Node10</title>
<polygon fill="white" stroke="#bfbfbf" points="124,-304.5 124,-361.5 246,-361.5 246,-304.5 124,-304.5"/>
<text text-anchor="middle" x="185" y="-349.5" font-family="Helvetica,sans-Serif" font-size="10.00">std::vector&lt; HyperArc &gt;</text>
<polyline fill="none" stroke="#bfbfbf" points="124,-342.5 246,-342.5 "/>
<text text-anchor="middle" x="185" y="-330.5" font-family="Helvetica,sans-Serif" font-size="10.00"> </text>
<polyline fill="none" stroke="#bfbfbf" points="124,-323.5 246,-323.5 "/>
<text text-anchor="middle" x="185" y="-311.5" font-family="Helvetica,sans-Serif" font-size="10.00"> </text>
</g>
<!-- Node5&#45;&gt;Node10 -->
<g id="edge15" class="edge"><title>Node5&#45;&gt;Node10</title>
<path fill="none" stroke="orange" d="M427.321,-769.403C375.777,-732.89 300.339,-678.806 296,-672 224.873,-560.431 304.435,-494.425 238,-380 234.146,-373.362 228.979,-367.205 223.379,-361.695"/>
<polygon fill="orange" stroke="orange" points="425.506,-772.407 435.691,-775.327 429.55,-766.693 425.506,-772.407"/>
<text text-anchor="middle" x="298.5" y="-587.5" font-family="Helvetica,sans-Serif" font-size="10.00"> &lt; HyperArc &gt;</text>
</g>
<!-- Node12 -->
<g id="node12" class="node"><title>Node12</title>
<polygon fill="white" stroke="#bfbfbf" points="431.5,-304.5 431.5,-361.5 532.5,-361.5 532.5,-304.5 431.5,-304.5"/>
<text text-anchor="middle" x="482" y="-349.5" font-family="Helvetica,sans-Serif" font-size="10.00">std::vector&lt; Path &gt;</text>
<polyline fill="none" stroke="#bfbfbf" points="431.5,-342.5 532.5,-342.5 "/>
<text text-anchor="middle" x="482" y="-330.5" font-family="Helvetica,sans-Serif" font-size="10.00"> </text>
<polyline fill="none" stroke="#bfbfbf" points="431.5,-323.5 532.5,-323.5 "/>
<text text-anchor="middle" x="482" y="-311.5" font-family="Helvetica,sans-Serif" font-size="10.00"> </text>
</g>
<!-- Node5&#45;&gt;Node12 -->
<g id="edge23" class="edge"><title>Node5&#45;&gt;Node12</title>
<path fill="none" stroke="orange" d="M527.877,-781.739C571.655,-760.961 630.904,-724.72 658,-672 717.427,-556.375 581.929,-419.111 515.734,-361.551"/>
<polygon fill="orange" stroke="orange" points="526.398,-778.567 518.788,-785.939 529.334,-784.922 526.398,-778.567"/>
<text text-anchor="middle" x="692" y="-587.5" font-family="Helvetica,sans-Serif" font-size="10.00"> &lt; Path &gt;</text>
</g>
<!-- Node14 -->
<g id="node14" class="node"><title>Node14</title>
<polygon fill="white" stroke="#bfbfbf" points="439.5,-614.5 439.5,-671.5 538.5,-671.5 538.5,-614.5 439.5,-614.5"/>
<text text-anchor="middle" x="489" y="-659.5" font-family="Helvetica,sans-Serif" font-size="10.00">std::vector&lt; bool &gt;</text>
<polyline fill="none" stroke="#bfbfbf" points="439.5,-652.5 538.5,-652.5 "/>
<text text-anchor="start" x="447.5" y="-640.5" font-family="Helvetica,sans-Serif" font-size="10.00">+ elements</text>
<polyline fill="none" stroke="#bfbfbf" points="439.5,-633.5 538.5,-633.5 "/>
<text text-anchor="middle" x="489" y="-621.5" font-family="Helvetica,sans-Serif" font-size="10.00"> </text>
</g>
<!-- Node5&#45;&gt;Node14 -->
<g id="edge22" class="edge"><title>Node5&#45;&gt;Node14</title>
<path fill="none" stroke="orange" d="M484.853,-765.432C489.619,-743.55 494.1,-715.357 493,-690 492.743,-684.074 492.3,-677.73 491.801,-671.705"/>
<polygon fill="orange" stroke="orange" points="481.41,-764.789 482.588,-775.318 488.233,-766.352 481.41,-764.789"/>
<text text-anchor="middle" x="514" y="-693.5" font-family="Helvetica,sans-Serif" font-size="10.00"> &lt; bool &gt;</text>
</g>
<!-- Node6 -->
<g id="node6" class="node"><title>Node6</title>
<polygon fill="white" stroke="#bfbfbf" points="460.5,-936.5 460.5,-993.5 489.5,-993.5 489.5,-936.5 460.5,-936.5"/>
<text text-anchor="middle" x="475" y="-981.5" font-family="Helvetica,sans-Serif" font-size="10.00">T</text>
<polyline fill="none" stroke="#bfbfbf" points="460.5,-974.5 489.5,-974.5 "/>
<text text-anchor="middle" x="475" y="-962.5" font-family="Helvetica,sans-Serif" font-size="10.00"> </text>
<polyline fill="none" stroke="#bfbfbf" points="460.5,-955.5 489.5,-955.5 "/>
<text text-anchor="middle" x="475" y="-943.5" font-family="Helvetica,sans-Serif" font-size="10.00"> </text>
</g>
<!-- Node6&#45;&gt;Node5 -->
<g id="edge5" class="edge"><title>Node6&#45;&gt;Node5</title>
<path fill="none" stroke="#404040" d="M475,-936.304C475,-911.074 475,-873.514 475,-845.021"/>
<polygon fill="none" stroke="#404040" points="475,-844.645 471,-838.645 475,-832.645 479,-838.645 475,-844.645"/>
<text text-anchor="middle" x="499.5" y="-909.5" font-family="Helvetica,sans-Serif" font-size="10.00"> +elements</text>
</g>
<!-- Node7&#45;&gt;Node1 -->
<g id="edge6" class="edge"><title>Node7&#45;&gt;Node1</title>
<path fill="none" stroke="#404040" d="M363,-614.419C363,-550.234 363,-387.246 363,-267.773"/>
<polygon fill="none" stroke="#404040" points="363,-267.624 359,-261.624 363,-255.624 367,-261.624 363,-267.624"/>
<text text-anchor="middle" x="380" y="-388.5" font-family="Helvetica,sans-Serif" font-size="10.00"> +graph</text>
</g>
<!-- Node8&#45;&gt;Node1 -->
<g id="edge24" class="edge"><title>Node8&#45;&gt;Node1</title>
<path fill="none" stroke="#404040" d="M69.1162,-720.231C61.6719,-696.092 56,-669.374 56,-644 56,-644 56,-644 56,-332 56,-222.121 194.524,-168.262 285.471,-144.743"/>
<polygon fill="none" stroke="#404040" points="285.5,-144.736 290.349,-139.399 297.141,-141.822 292.291,-147.159 285.5,-144.736"/>
<text text-anchor="middle" x="71.5" y="-490.5" font-family="Helvetica,sans-Serif" font-size="10.00"> +head</text>
</g>
<!-- Node8&#45;&gt;Node7 -->
<g id="edge7" class="edge"><title>Node8&#45;&gt;Node7</title>
<path fill="none" stroke="#404040" d="M170.244,-781.412C215.316,-764.551 274.605,-737.936 319,-702 326.241,-696.139 332.959,-688.845 338.856,-681.43"/>
<polygon fill="none" stroke="#404040" points="338.927,-681.334 339.314,-674.134 346.109,-671.721 345.723,-678.922 338.927,-681.334"/>
<text text-anchor="middle" x="355.5" y="-693.5" font-family="Helvetica,sans-Serif" font-size="10.00"> +elements</text>
</g>
<!-- Node8&#45;&gt;Node9 -->
<g id="edge9" class="edge"><title>Node8&#45;&gt;Node9</title>
<path fill="none" stroke="#404040" d="M147.612,-720.438C150.813,-714.211 153.972,-708.013 157,-702 160.112,-695.821 163.355,-689.24 166.484,-682.814"/>
<polygon fill="none" stroke="#404040" points="166.716,-682.334 165.728,-675.191 171.941,-671.531 172.93,-678.674 166.716,-682.334"/>
<text text-anchor="middle" x="187.5" y="-693.5" font-family="Helvetica,sans-Serif" font-size="10.00"> +elements</text>
</g>
<!-- Node9&#45;&gt;Node8 -->
<g id="edge8" class="edge"><title>Node9&#45;&gt;Node8</title>
<path fill="none" stroke="#404040" d="M131.291,-671.595C124.927,-676.906 119.209,-683.029 115,-690 111.53,-695.747 108.788,-701.966 106.642,-708.429"/>
<polygon fill="none" stroke="#404040" points="106.568,-708.702 108.84,-715.546 103.396,-720.276 101.124,-713.432 106.568,-708.702"/>
<text text-anchor="middle" x="136" y="-693.5" font-family="Helvetica,sans-Serif" font-size="10.00"> +parents</text>
</g>
<!-- Node11 -->
<g id="node11" class="node"><title>Node11</title>
<g id="a_node11"><a xlink:href="../../db/dba/classHyperArc.xhtml" target="_top" xlink:title="class &quot;HyperArc&quot; for the hyperarc connecting one parent node to a number of child nodes in an AND rel...">
<polygon fill="white" stroke="black" points="144,-448 144,-538 226,-538 226,-448 144,-448"/>
<text text-anchor="middle" x="185" y="-526" font-family="Helvetica,sans-Serif" font-size="10.00">HyperArc</text>
<polyline fill="none" stroke="black" points="144,-519 226,-519 "/>
<text text-anchor="start" x="152" y="-507" font-family="Helvetica,sans-Serif" font-size="10.00">+ hIndex</text>
<text text-anchor="start" x="152" y="-496" font-family="Helvetica,sans-Serif" font-size="10.00">+ hCost</text>
<polyline fill="none" stroke="black" points="144,-489 226,-489 "/>
<text text-anchor="start" x="152" y="-477" font-family="Helvetica,sans-Serif" font-size="10.00">+ HyperArc()</text>
<text text-anchor="start" x="152" y="-466" font-family="Helvetica,sans-Serif" font-size="10.00">+ printArcInfo()</text>
<text text-anchor="start" x="152" y="-455" font-family="Helvetica,sans-Serif" font-size="10.00">+ ~HyperArc()</text>
</a>
</g>
</g>
<!-- Node9&#45;&gt;Node11 -->
<g id="edge14" class="edge"><title>Node9&#45;&gt;Node11</title>
<path fill="none" stroke="#404040" d="M185,-614.162C185,-596.159 185,-572.087 185,-550.218"/>
<polygon fill="none" stroke="#404040" points="185,-550.004 181,-544.004 185,-538.004 189,-544.004 185,-550.004"/>
<text text-anchor="middle" x="206.5" y="-587.5" font-family="Helvetica,sans-Serif" font-size="10.00"> +children</text>
</g>
<!-- Node9&#45;&gt;Node13 -->
<g id="edge19" class="edge"><title>Node9&#45;&gt;Node13</title>
<path fill="none" stroke="#404040" d="M246.742,-626.537C283.666,-616.826 326.676,-604.563 344,-596 373.708,-581.316 403.654,-560.135 428.021,-540.875"/>
<polygon fill="none" stroke="#404040" points="428.062,-540.843 430.234,-533.967 437.417,-533.327 435.245,-540.203 428.062,-540.843"/>
<text text-anchor="middle" x="393.5" y="-587.5" font-family="Helvetica,sans-Serif" font-size="10.00"> +pathNodes</text>
</g>
<!-- Node10&#45;&gt;Node8 -->
<g id="edge12" class="edge"><title>Node10&#45;&gt;Node8</title>
<path fill="none" stroke="#404040" d="M164.919,-361.629C154.201,-377.833 141.842,-399.161 135,-420 103.939,-514.607 98.5604,-629.096 99.4746,-708.12"/>
<polygon fill="none" stroke="#404040" points="99.4805,-708.491 103.576,-714.426 99.6724,-720.489 95.577,-714.554 99.4805,-708.491"/>
<text text-anchor="middle" x="118" y="-587.5" font-family="Helvetica,sans-Serif" font-size="10.00"> +arcs</text>
</g>
<!-- Node11&#45;&gt;Node10 -->
<g id="edge13" class="edge"><title>Node11&#45;&gt;Node10</title>
<path fill="none" stroke="#404040" d="M185,-447.988C185,-424.829 185,-396.642 185,-374.092"/>
<polygon fill="none" stroke="#404040" points="185,-373.881 181,-367.881 185,-361.881 189,-367.881 185,-373.881"/>
<text text-anchor="middle" x="209.5" y="-388.5" font-family="Helvetica,sans-Serif" font-size="10.00"> +elements</text>
</g>
<!-- Node12&#45;&gt;Node1 -->
<g id="edge17" class="edge"><title>Node12&#45;&gt;Node1</title>
<path fill="none" stroke="#404040" d="M465.703,-304.199C457.247,-289.774 446.265,-271.04 434.637,-251.204"/>
<polygon fill="none" stroke="#404040" points="434.576,-251.101 428.091,-247.947 428.508,-240.748 434.993,-243.901 434.576,-251.101"/>
<text text-anchor="middle" x="471" y="-277.5" font-family="Helvetica,sans-Serif" font-size="10.00"> +paths</text>
</g>
<!-- Node13&#45;&gt;Node12 -->
<g id="edge18" class="edge"><title>Node13&#45;&gt;Node12</title>
<path fill="none" stroke="#404040" d="M482,-420.397C482,-404.393 482,-387.981 482,-373.819"/>
<polygon fill="none" stroke="#404040" points="482,-373.521 478,-367.522 482,-361.521 486,-367.521 482,-373.521"/>
<text text-anchor="middle" x="506.5" y="-388.5" font-family="Helvetica,sans-Serif" font-size="10.00"> +elements</text>
</g>
<!-- Node14&#45;&gt;Node13 -->
<g id="edge21" class="edge"><title>Node14&#45;&gt;Node13</title>
<path fill="none" stroke="#404040" d="M484.844,-614.324C484.092,-608.297 483.415,-601.945 483,-596 482.593,-590.178 482.275,-584.166 482.028,-578.107"/>
<polygon fill="none" stroke="#404040" points="482.013,-577.647 477.818,-571.782 481.619,-565.654 485.814,-571.519 482.013,-577.647"/>
<text text-anchor="middle" x="520.5" y="-587.5" font-family="Helvetica,sans-Serif" font-size="10.00"> +checkedNodes</text>
</g>
</g>
</svg>
