<?xml version="1.0" encoding="UTF-8" standalone="no"?>
<!DOCTYPE svg PUBLIC "-//W3C//DTD SVG 1.1//EN"
 "http://www.w3.org/Graphics/SVG/1.1/DTD/svg11.dtd">
<!-- Generated by graphviz version 2.36.0 (20140111.2315)
 -->
<!-- Title: endorActionClass Pages: 1 -->
<svg width="489pt" height="836pt"
 viewBox="0.00 0.00 489.00 836.00" xmlns="http://www.w3.org/2000/svg" xmlns:xlink="http://www.w3.org/1999/xlink">
<g id="graph0" class="graph" transform="scale(1 1) rotate(0) translate(4 832)">
<title>endorActionClass</title>
<polygon fill="white" stroke="none" points="-4,4 -4,-832 485,-832 485,4 -4,4"/>
<!-- Node1 -->
<g id="node1" class="node"><title>Node1</title>
<polygon fill="#bfbfbf" stroke="black" points="163.5,-1 163.5,-245 300.5,-245 300.5,-1 163.5,-1"/>
<text text-anchor="middle" x="232" y="-233" font-family="Helvetica,sans-Serif" font-size="10.00">endorActionClass</text>
<polyline fill="none" stroke="black" points="163.5,-226 300.5,-226 "/>
<text text-anchor="start" x="171.5" y="-214" font-family="Helvetica,sans-Serif" font-size="10.00">+ nodeActionList_width</text>
<text text-anchor="start" x="171.5" y="-203" font-family="Helvetica,sans-Serif" font-size="10.00">+ Number_of_Nodes</text>
<text text-anchor="start" x="171.5" y="-192" font-family="Helvetica,sans-Serif" font-size="10.00">+ Number_of_Actions</text>
<text text-anchor="start" x="171.5" y="-181" font-family="Helvetica,sans-Serif" font-size="10.00">+ Number_of_Arms_State</text>
<text text-anchor="start" x="171.5" y="-170" font-family="Helvetica,sans-Serif" font-size="10.00">+ node_action_flag</text>
<text text-anchor="start" x="171.5" y="-159" font-family="Helvetica,sans-Serif" font-size="10.00">+ actionNumber</text>
<text text-anchor="start" x="171.5" y="-148" font-family="Helvetica,sans-Serif" font-size="10.00">+ node_number</text>
<text text-anchor="start" x="171.5" y="-137" font-family="Helvetica,sans-Serif" font-size="10.00">+ actionFlag</text>
<text text-anchor="start" x="171.5" y="-126" font-family="Helvetica,sans-Serif" font-size="10.00">+ nodeFlag</text>
<text text-anchor="start" x="171.5" y="-115" font-family="Helvetica,sans-Serif" font-size="10.00">+ ambiguity_Number</text>
<text text-anchor="start" x="171.5" y="-104" font-family="Helvetica,sans-Serif" font-size="10.00">&#45; suggested_node_number</text>
<text text-anchor="start" x="171.5" y="-93" font-family="Helvetica,sans-Serif" font-size="10.00">&#45; suggested_action_number</text>
<polyline fill="none" stroke="black" points="163.5,-86 300.5,-86 "/>
<text text-anchor="start" x="171.5" y="-74" font-family="Helvetica,sans-Serif" font-size="10.00">+ endorActionClass()</text>
<text text-anchor="start" x="171.5" y="-63" font-family="Helvetica,sans-Serif" font-size="10.00">+ nodeActionListFunction()</text>
<text text-anchor="start" x="171.5" y="-52" font-family="Helvetica,sans-Serif" font-size="10.00">+ ActionListFunction()</text>
<text text-anchor="start" x="171.5" y="-41" font-family="Helvetica,sans-Serif" font-size="10.00">+ nodeListFunction()</text>
<text text-anchor="start" x="171.5" y="-30" font-family="Helvetica,sans-Serif" font-size="10.00">+ humanActionSearch()</text>
<text text-anchor="start" x="171.5" y="-19" font-family="Helvetica,sans-Serif" font-size="10.00">+ robStopFunction()</text>
<text text-anchor="start" x="171.5" y="-8" font-family="Helvetica,sans-Serif" font-size="10.00">+ ~endorActionClass()</text>
</g>
<!-- Node2 -->
<g id="node2" class="node"><title>Node2</title>
<polygon fill="white" stroke="#bfbfbf" points="-0.5,-361 -0.5,-429 118.5,-429 118.5,-361 -0.5,-361"/>
<text text-anchor="start" x="7.5" y="-417" font-family="Helvetica,sans-Serif" font-size="10.00">std::vector&lt; std::vector</text>
<text text-anchor="middle" x="59" y="-406" font-family="Helvetica,sans-Serif" font-size="10.00">&lt; int &gt; &gt;</text>
<polyline fill="none" stroke="#bfbfbf" points="-0.5,-399 118.5,-399 "/>
<text text-anchor="middle" x="59" y="-387" font-family="Helvetica,sans-Serif" font-size="10.00"> </text>
<polyline fill="none" stroke="#bfbfbf" points="-0.5,-380 118.5,-380 "/>
<text text-anchor="middle" x="59" y="-368" font-family="Helvetica,sans-Serif" font-size="10.00"> </text>
</g>
<!-- Node2&#45;&gt;Node1 -->
<g id="edge1" class="edge"><title>Node2&#45;&gt;Node1</title>
<path fill="none" stroke="#404040" d="M51.7491,-360.741C47.493,-333.381 45.4436,-294.316 60,-264 79.6431,-223.09 117.659,-190.174 152.965,-166.563"/>
<polygon fill="none" stroke="#404040" points="153.254,-166.375 156.111,-159.754 163.321,-159.844 160.465,-166.465 153.254,-166.375"/>
<text text-anchor="middle" x="102.5" y="-300.5" font-family="Helvetica,sans-Serif" font-size="10.00"> +Node_action_flag</text>
</g>
<!-- Node3 -->
<g id="node3" class="node"><title>Node3</title>
<polygon fill="white" stroke="#bfbfbf" points="157,-542.5 157,-599.5 249,-599.5 249,-542.5 157,-542.5"/>
<text text-anchor="middle" x="203" y="-587.5" font-family="Helvetica,sans-Serif" font-size="10.00">std::vector&lt; int &gt;</text>
<polyline fill="none" stroke="#bfbfbf" points="157,-580.5 249,-580.5 "/>
<text text-anchor="start" x="165" y="-568.5" font-family="Helvetica,sans-Serif" font-size="10.00">+ elements</text>
<polyline fill="none" stroke="#bfbfbf" points="157,-561.5 249,-561.5 "/>
<text text-anchor="middle" x="203" y="-549.5" font-family="Helvetica,sans-Serif" font-size="10.00"> </text>
</g>
<!-- Node3&#45;&gt;Node1 -->
<g id="edge10" class="edge"><title>Node3&#45;&gt;Node1</title>
<path fill="none" stroke="#404040" d="M192.876,-542.315C183.248,-514.407 169.45,-469.873 164,-430 156.173,-372.734 166.544,-310.315 181.361,-256.877"/>
<polygon fill="none" stroke="#404040" points="181.383,-256.8 179.191,-249.93 184.689,-245.264 186.881,-252.134 181.383,-256.8"/>
<text text-anchor="start" x="164" y="-398" font-family="Helvetica,sans-Serif" font-size="10.00"> +Number_of_Action_For</text>
<text text-anchor="middle" x="219" y="-387" font-family="Helvetica,sans-Serif" font-size="10.00">_Each_Node</text>
</g>
<!-- Node3&#45;&gt;Node2 -->
<g id="edge2" class="edge"><title>Node3&#45;&gt;Node2</title>
<path fill="none" stroke="#404040" d="M156.85,-542.942C152.219,-540.501 147.548,-538.145 143,-536 122.768,-526.459 111.243,-534.37 96,-518 76.622,-497.189 67.3752,-466.539 62.9712,-441.167"/>
<polygon fill="none" stroke="#404040" points="62.9566,-441.069 58.1102,-435.729 61.1751,-429.202 66.0216,-434.542 62.9566,-441.069"/>
<text text-anchor="middle" x="120.5" y="-480.5" font-family="Helvetica,sans-Serif" font-size="10.00"> +elements</text>
</g>
<!-- Node4 -->
<g id="node4" class="node"><title>Node4</title>
<g id="a_node4"><a xlink:title="STL class. ">
<polygon fill="white" stroke="#bfbfbf" points="159.5,-664.5 159.5,-721.5 246.5,-721.5 246.5,-664.5 159.5,-664.5"/>
<text text-anchor="middle" x="203" y="-709.5" font-family="Helvetica,sans-Serif" font-size="10.00">std::vector&lt; T &gt;</text>
<polyline fill="none" stroke="#bfbfbf" points="159.5,-702.5 246.5,-702.5 "/>
<text text-anchor="middle" x="203" y="-690.5" font-family="Helvetica,sans-Serif" font-size="10.00"> </text>
<polyline fill="none" stroke="#bfbfbf" points="159.5,-683.5 246.5,-683.5 "/>
<text text-anchor="middle" x="203" y="-671.5" font-family="Helvetica,sans-Serif" font-size="10.00"> </text>
</a>
</g>
</g>
<!-- Node4&#45;&gt;Node2 -->
<g id="edge5" class="edge"><title>Node4&#45;&gt;Node2</title>
<path fill="none" stroke="orange" d="M149.686,-677.2C114.897,-664.465 72.1518,-642.27 51,-606 18.8352,-550.845 34.3841,-472.964 47.4438,-429.202"/>
<polygon fill="orange" stroke="orange" points="148.667,-680.551 159.262,-680.544 150.976,-673.943 148.667,-680.551"/>
<text text-anchor="middle" x="99.5" y="-568.5" font-family="Helvetica,sans-Serif" font-size="10.00"> &lt; std::vector&lt; int &gt; &gt;</text>
</g>
<!-- Node4&#45;&gt;Node3 -->
<g id="edge3" class="edge"><title>Node4&#45;&gt;Node3</title>
<path fill="none" stroke="orange" d="M203,-654.468C203,-636.789 203,-616.067 203,-599.818"/>
<polygon fill="orange" stroke="orange" points="199.5,-654.47 203,-664.47 206.5,-654.47 199.5,-654.47"/>
<text text-anchor="middle" x="219" y="-632.5" font-family="Helvetica,sans-Serif" font-size="10.00"> &lt; int &gt;</text>
</g>
<!-- Node6 -->
<g id="node6" class="node"><title>Node6</title>
<polygon fill="white" stroke="#bfbfbf" points="240.5,-449 240.5,-517 359.5,-517 359.5,-449 240.5,-449"/>
<text text-anchor="start" x="248.5" y="-505" font-family="Helvetica,sans-Serif" font-size="10.00">std::vector&lt; std::vector</text>
<text text-anchor="middle" x="300" y="-494" font-family="Helvetica,sans-Serif" font-size="10.00">&lt; std::string &gt; &gt;</text>
<polyline fill="none" stroke="#bfbfbf" points="240.5,-487 359.5,-487 "/>
<text text-anchor="start" x="248.5" y="-475" font-family="Helvetica,sans-Serif" font-size="10.00">+ elements</text>
<polyline fill="none" stroke="#bfbfbf" points="240.5,-468 359.5,-468 "/>
<text text-anchor="middle" x="300" y="-456" font-family="Helvetica,sans-Serif" font-size="10.00"> </text>
</g>
<!-- Node4&#45;&gt;Node6 -->
<g id="edge7" class="edge"><title>Node4&#45;&gt;Node6</title>
<path fill="none" stroke="orange" d="M232.196,-656.226C234.595,-652.836 236.9,-649.396 239,-646 264.524,-604.718 282.121,-551.049 291.634,-517.051"/>
<polygon fill="orange" stroke="orange" points="229.219,-654.366 226.108,-664.494 234.856,-658.517 229.219,-654.366"/>
<text text-anchor="start" x="251" y="-638" font-family="Helvetica,sans-Serif" font-size="10.00"> &lt; std::vector&lt; std</text>
<text text-anchor="middle" x="292" y="-627" font-family="Helvetica,sans-Serif" font-size="10.00">::string &gt; &gt;</text>
</g>
<!-- Node5 -->
<g id="node5" class="node"><title>Node5</title>
<polygon fill="white" stroke="#bfbfbf" points="188.5,-770.5 188.5,-827.5 217.5,-827.5 217.5,-770.5 188.5,-770.5"/>
<text text-anchor="middle" x="203" y="-815.5" font-family="Helvetica,sans-Serif" font-size="10.00">T</text>
<polyline fill="none" stroke="#bfbfbf" points="188.5,-808.5 217.5,-808.5 "/>
<text text-anchor="middle" x="203" y="-796.5" font-family="Helvetica,sans-Serif" font-size="10.00"> </text>
<polyline fill="none" stroke="#bfbfbf" points="188.5,-789.5 217.5,-789.5 "/>
<text text-anchor="middle" x="203" y="-777.5" font-family="Helvetica,sans-Serif" font-size="10.00"> </text>
</g>
<!-- Node5&#45;&gt;Node4 -->
<g id="edge4" class="edge"><title>Node5&#45;&gt;Node4</title>
<path fill="none" stroke="#404040" d="M203,-770.403C203,-759.237 203,-746.13 203,-733.956"/>
<polygon fill="none" stroke="#404040" points="203,-733.726 199,-727.726 203,-721.726 207,-727.726 203,-733.726"/>
<text text-anchor="middle" x="227.5" y="-743.5" font-family="Helvetica,sans-Serif" font-size="10.00"> +elements</text>
</g>
<!-- Node6&#45;&gt;Node1 -->
<g id="edge6" class="edge"><title>Node6&#45;&gt;Node1</title>
<path fill="none" stroke="#404040" d="M293.725,-448.962C285.457,-405.436 270.422,-326.283 257.262,-256.995"/>
<polygon fill="none" stroke="#404040" points="257.237,-256.867 252.188,-251.719 254.998,-245.078 260.047,-250.226 257.237,-256.867"/>
<text text-anchor="middle" x="330.5" y="-398" font-family="Helvetica,sans-Serif" font-size="10.00"> +Action_DEF_list</text>
<text text-anchor="middle" x="330.5" y="-387" font-family="Helvetica,sans-Serif" font-size="10.00">+Node_action_list</text>
</g>
<!-- Node7 -->
<g id="node7" class="node"><title>Node7</title>
<g id="a_node7"><a xlink:title="STL class. ">
<polygon fill="white" stroke="#bfbfbf" points="404,-366.5 404,-423.5 464,-423.5 464,-366.5 404,-366.5"/>
<text text-anchor="middle" x="434" y="-411.5" font-family="Helvetica,sans-Serif" font-size="10.00">std::string</text>
<polyline fill="none" stroke="#bfbfbf" points="404,-404.5 464,-404.5 "/>
<text text-anchor="middle" x="434" y="-392.5" font-family="Helvetica,sans-Serif" font-size="10.00"> </text>
<polyline fill="none" stroke="#bfbfbf" points="404,-385.5 464,-385.5 "/>
<text text-anchor="middle" x="434" y="-373.5" font-family="Helvetica,sans-Serif" font-size="10.00"> </text>
</a>
</g>
</g>
<!-- Node7&#45;&gt;Node1 -->
<g id="edge8" class="edge"><title>Node7&#45;&gt;Node1</title>
<path fill="none" stroke="#404040" d="M413.332,-366.374C388.582,-333.293 345.721,-276.004 307.883,-225.428"/>
<polygon fill="none" stroke="#404040" points="307.824,-225.349 301.027,-222.941 300.636,-215.741 307.433,-218.149 307.824,-225.349"/>
<text text-anchor="middle" x="432.5" y="-333.5" font-family="Helvetica,sans-Serif" font-size="10.00"> +responsible</text>
<text text-anchor="middle" x="432.5" y="-322.5" font-family="Helvetica,sans-Serif" font-size="10.00">+node_action_list</text>
<text text-anchor="middle" x="432.5" y="-311.5" font-family="Helvetica,sans-Serif" font-size="10.00">+suggested_action</text>
<text text-anchor="middle" x="432.5" y="-300.5" font-family="Helvetica,sans-Serif" font-size="10.00">+suggested_Node</text>
<text text-anchor="middle" x="432.5" y="-289.5" font-family="Helvetica,sans-Serif" font-size="10.00">+solved_Node</text>
<text text-anchor="middle" x="432.5" y="-278.5" font-family="Helvetica,sans-Serif" font-size="10.00">+actionCommand</text>
<text text-anchor="middle" x="432.5" y="-267.5" font-family="Helvetica,sans-Serif" font-size="10.00">+solved_action</text>
</g>
<!-- Node8 -->
<g id="node8" class="node"><title>Node8</title>
<g id="a_node8"><a xlink:title="STL class. ">
<polygon fill="white" stroke="#bfbfbf" points="386.5,-537 386.5,-605 481.5,-605 481.5,-537 386.5,-537"/>
<text text-anchor="start" x="394.5" y="-593" font-family="Helvetica,sans-Serif" font-size="10.00">std::basic_string&lt;</text>
<text text-anchor="middle" x="434" y="-582" font-family="Helvetica,sans-Serif" font-size="10.00"> char &gt;</text>
<polyline fill="none" stroke="#bfbfbf" points="386.5,-575 481.5,-575 "/>
<text text-anchor="middle" x="434" y="-563" font-family="Helvetica,sans-Serif" font-size="10.00"> </text>
<polyline fill="none" stroke="#bfbfbf" points="386.5,-556 481.5,-556 "/>
<text text-anchor="middle" x="434" y="-544" font-family="Helvetica,sans-Serif" font-size="10.00"> </text>
</a>
</g>
</g>
<!-- Node8&#45;&gt;Node7 -->
<g id="edge9" class="edge"><title>Node8&#45;&gt;Node7</title>
<path fill="none" stroke="midnightblue" d="M434,-526.793C434,-494.5 434,-451.315 434,-423.573"/>
<polygon fill="none" stroke="midnightblue" points="430.5,-526.862 434,-536.862 437.5,-526.862 430.5,-526.862"/>
</g>
</g>
</svg>
